<?xml version="1.0" encoding="us-ascii" standalone="no"?><svg xmlns="http://www.w3.org/2000/svg" xmlns:xlink="http://www.w3.org/1999/xlink" contentStyleType="text/css" height="1009px" preserveAspectRatio="none" style="width:1062px;height:1009px;background:#FFFFFF;" version="1.1" viewBox="0 0 1062 1009" width="1062px" zoomAndPan="magnify"><defs/><g><rect fill="#FFFFFF" height="887.0742" style="stroke:#181818;stroke-width:1.0;" width="10" x="102.5" y="77.7988"/><rect fill="#FFFFFF" height="887.0742" style="stroke:#181818;stroke-width:1.0;" width="10" x="102.5" y="77.7988"/><rect fill="#FFFFFF" height="792.0977" style="stroke:#181818;stroke-width:1.0;" width="10" x="107.5" y="172.7754"/><rect fill="#FFFFFF" height="410.416" style="stroke:#181818;stroke-width:1.0;" width="10" x="112.5" y="554.457"/><rect fill="#FFFFFF" height="192.8184" style="stroke:#181818;stroke-width:1.0;" width="10" x="283.5" y="207.0859"/><rect fill="#FFFFFF" height="14" style="stroke:#181818;stroke-width:1.0;" width="10" x="283.5" y="855.252"/><rect fill="#FFFFFF" height="16.1777" style="stroke:#181818;stroke-width:1.0;" width="10" x="383.5" y="119.2871"/><rect fill="#FFFFFF" height="29.3105" style="stroke:#181818;stroke-width:1.0;" width="10" x="383.5" y="260.707"/><rect fill="#FFFFFF" height="29.3105" style="stroke:#181818;stroke-width:1.0;" width="10" x="383.5" y="334.2832"/><rect fill="#FFFFFF" height="29.3105" style="stroke:#181818;stroke-width:1.0;" width="10" x="480" y="746.3203"/><rect fill="#FFFFFF" height="29.3105" style="stroke:#181818;stroke-width:1.0;" width="10" x="560.5" y="613.0781"/><rect fill="#FFFFFF" height="14" style="stroke:#181818;stroke-width:1.0;" width="10" x="629.5" y="804.9414"/><rect fill="#FFFFFF" height="29.3105" style="stroke:#181818;stroke-width:1.0;" width="10" x="687" y="429.2148"/><rect fill="#FFFFFF" height="29.3105" style="stroke:#181818;stroke-width:1.0;" width="10" x="687" y="487.8359"/><rect fill="#FFFFFF" height="14" style="stroke:#181818;stroke-width:1.0;" width="10" x="748" y="671.6992"/><rect fill="#FFFFFF" height="14" style="stroke:#181818;stroke-width:1.0;" width="10" x="838" y="898.5625"/><rect fill="#FFFFFF" height="14" style="stroke:#181818;stroke-width:1.0;" width="10" x="838" y="941.873"/><rect fill="none" height="149.5078" style="stroke:#000000;stroke-width:1.5;" width="278" x="241.5" y="222.0859"/><rect fill="none" height="119.2422" style="stroke:#000000;stroke-width:1.5;" width="778.5" x="10" y="574.457"/><rect fill="none" height="119.2422" style="stroke:#000000;stroke-width:1.5;" width="656.5" x="10" y="707.6992"/><line style="stroke:#181818;stroke-width:0.5;stroke-dasharray:5.0,5.0;" x1="102" x2="102" y1="77.2324" y2="973.873"/><line style="stroke:#181818;stroke-width:0.5;stroke-dasharray:5.0,5.0;" x1="288.5" x2="288.5" y1="36.4883" y2="973.873"/><line style="stroke:#181818;stroke-width:0.5;stroke-dasharray:5.0,5.0;" x1="388.5" x2="388.5" y1="118.7207" y2="973.873"/><line style="stroke:#181818;stroke-width:0.5;stroke-dasharray:5.0,5.0;" x1="484.5" x2="484.5" y1="36.4883" y2="973.873"/><line style="stroke:#181818;stroke-width:0.5;stroke-dasharray:5.0,5.0;" x1="565.5" x2="565.5" y1="36.4883" y2="973.873"/><line style="stroke:#181818;stroke-width:0.5;stroke-dasharray:5.0,5.0;" x1="634.5" x2="634.5" y1="36.4883" y2="973.873"/><line style="stroke:#181818;stroke-width:0.5;stroke-dasharray:5.0,5.0;" x1="691.5" x2="691.5" y1="36.4883" y2="973.873"/><line style="stroke:#181818;stroke-width:0.5;stroke-dasharray:5.0,5.0;" x1="752.5" x2="752.5" y1="36.4883" y2="973.873"/><line style="stroke:#181818;stroke-width:0.5;stroke-dasharray:5.0,5.0;" x1="842.5" x2="842.5" y1="36.4883" y2="973.873"/><line style="stroke:#181818;stroke-width:0.5;stroke-dasharray:5.0,5.0;" x1="981.5" x2="981.5" y1="36.4883" y2="973.873"/><rect fill="#E2E2F0" height="30.4883" rx="2.5" ry="2.5" style="stroke:#181818;stroke-width:0.5;" width="165" x="20" y="972.873"/><text fill="#000000" font-family="sans-serif" font-size="14" lengthAdjust="spacing" textLength="151" x="27" y="993.4082">:DeleteCardCommand</text><rect fill="#E2E2F0" height="30.4883" rx="2.5" ry="2.5" style="stroke:#181818;stroke-width:0.5;" width="74" x="251.5" y="5"/><text fill="#000000" font-family="sans-serif" font-size="14" lengthAdjust="spacing" textLength="60" x="258.5" y="25.5352">:CardList</text><rect fill="#E2E2F0" height="30.4883" rx="2.5" ry="2.5" style="stroke:#181818;stroke-width:0.5;" width="74" x="251.5" y="972.873"/><text fill="#000000" font-family="sans-serif" font-size="14" lengthAdjust="spacing" textLength="60" x="258.5" y="993.4082">:CardList</text><rect fill="#E2E2F0" height="30.4883" rx="2.5" ry="2.5" style="stroke:#181818;stroke-width:0.5;" width="106" x="335.5" y="972.873"/><text fill="#000000" font-family="sans-serif" font-size="14" lengthAdjust="spacing" textLength="92" x="342.5" y="993.4082">:CardSelector</text><rect fill="#E2E2F0" height="30.4883" rx="2.5" ry="2.5" style="stroke:#181818;stroke-width:0.5;" width="67" x="451.5" y="5"/><text fill="#000000" font-family="sans-serif" font-size="14" lengthAdjust="spacing" textLength="53" x="458.5" y="25.5352">:TagList</text><rect fill="#E2E2F0" height="30.4883" rx="2.5" ry="2.5" style="stroke:#181818;stroke-width:0.5;" width="67" x="451.5" y="972.873"/><text fill="#000000" font-family="sans-serif" font-size="14" lengthAdjust="spacing" textLength="53" x="458.5" y="993.4082">:TagList</text><rect fill="#E2E2F0" height="30.4883" rx="2.5" ry="2.5" style="stroke:#181818;stroke-width:0.5;" width="74" x="528.5" y="5"/><text fill="#000000" font-family="sans-serif" font-size="14" lengthAdjust="spacing" textLength="60" x="535.5" y="25.5352">:DeckList</text><rect fill="#E2E2F0" height="30.4883" rx="2.5" ry="2.5" style="stroke:#181818;stroke-width:0.5;" width="74" x="528.5" y="972.873"/><text fill="#000000" font-family="sans-serif" font-size="14" lengthAdjust="spacing" textLength="60" x="535.5" y="993.4082">:DeckList</text><rect fill="#E2E2F0" height="30.4883" rx="2.5" ry="2.5" style="stroke:#181818;stroke-width:0.5;" width="44" x="612.5" y="5"/><text fill="#000000" font-family="sans-serif" font-size="14" lengthAdjust="spacing" textLength="30" x="619.5" y="25.5352">:Tag</text><rect fill="#E2E2F0" height="30.4883" rx="2.5" ry="2.5" style="stroke:#181818;stroke-width:0.5;" width="44" x="612.5" y="972.873"/><text fill="#000000" font-family="sans-serif" font-size="14" lengthAdjust="spacing" textLength="30" x="619.5" y="993.4082">:Tag</text><rect fill="#E2E2F0" height="30.4883" rx="2.5" ry="2.5" style="stroke:#181818;stroke-width:0.5;" width="51" x="666.5" y="5"/><text fill="#000000" font-family="sans-serif" font-size="14" lengthAdjust="spacing" textLength="37" x="673.5" y="25.5352">:Card</text><rect fill="#E2E2F0" height="30.4883" rx="2.5" ry="2.5" style="stroke:#181818;stroke-width:0.5;" width="51" x="666.5" y="972.873"/><text fill="#000000" font-family="sans-serif" font-size="14" lengthAdjust="spacing" textLength="37" x="673.5" y="993.4082">:Card</text><rect fill="#E2E2F0" height="30.4883" rx="2.5" ry="2.5" style="stroke:#181818;stroke-width:0.5;" width="51" x="727.5" y="5"/><text fill="#000000" font-family="sans-serif" font-size="14" lengthAdjust="spacing" textLength="37" x="734.5" y="25.5352">:Deck</text><rect fill="#E2E2F0" height="30.4883" rx="2.5" ry="2.5" style="stroke:#181818;stroke-width:0.5;" width="51" x="727.5" y="972.873"/><text fill="#000000" font-family="sans-serif" font-size="14" lengthAdjust="spacing" textLength="37" x="734.5" y="993.4082">:Deck</text><rect fill="#E2E2F0" height="30.4883" rx="2.5" ry="2.5" style="stroke:#181818;stroke-width:0.5;" width="109" x="788.5" y="5"/><text fill="#000000" font-family="sans-serif" font-size="14" lengthAdjust="spacing" textLength="95" x="795.5" y="25.5352">:UserInterface</text><rect fill="#E2E2F0" height="30.4883" rx="2.5" ry="2.5" style="stroke:#181818;stroke-width:0.5;" width="109" x="788.5" y="972.873"/><text fill="#000000" font-family="sans-serif" font-size="14" lengthAdjust="spacing" textLength="95" x="795.5" y="993.4082">:UserInterface</text><rect fill="#E2E2F0" height="30.4883" rx="2.5" ry="2.5" style="stroke:#181818;stroke-width:0.5;" width="149" x="907.5" y="5"/><text fill="#000000" font-family="sans-serif" font-size="14" lengthAdjust="spacing" textLength="135" x="914.5" y="25.5352">CardKeywordParser</text><rect fill="#E2E2F0" height="30.4883" rx="2.5" ry="2.5" style="stroke:#181818;stroke-width:0.5;" width="149" x="907.5" y="972.873"/><text fill="#000000" font-family="sans-serif" font-size="14" lengthAdjust="spacing" textLength="135" x="914.5" y="993.4082">CardKeywordParser</text><rect fill="#FFFFFF" height="887.0742" style="stroke:#181818;stroke-width:1.0;" width="10" x="102.5" y="77.7988"/><rect fill="#FFFFFF" height="887.0742" style="stroke:#181818;stroke-width:1.0;" width="10" x="102.5" y="77.7988"/><rect fill="#FFFFFF" height="792.0977" style="stroke:#181818;stroke-width:1.0;" width="10" x="107.5" y="172.7754"/><rect fill="#FFFFFF" height="410.416" style="stroke:#181818;stroke-width:1.0;" width="10" x="112.5" y="554.457"/><rect fill="#FFFFFF" height="192.8184" style="stroke:#181818;stroke-width:1.0;" width="10" x="283.5" y="207.0859"/><rect fill="#FFFFFF" height="14" style="stroke:#181818;stroke-width:1.0;" width="10" x="283.5" y="855.252"/><rect fill="#FFFFFF" height="16.1777" style="stroke:#181818;stroke-width:1.0;" width="10" x="383.5" y="119.2871"/><rect fill="#FFFFFF" height="29.3105" style="stroke:#181818;stroke-width:1.0;" width="10" x="383.5" y="260.707"/><rect fill="#FFFFFF" height="29.3105" style="stroke:#181818;stroke-width:1.0;" width="10" x="383.5" y="334.2832"/><rect fill="#FFFFFF" height="29.3105" style="stroke:#181818;stroke-width:1.0;" width="10" x="480" y="746.3203"/><rect fill="#FFFFFF" height="29.3105" style="stroke:#181818;stroke-width:1.0;" width="10" x="560.5" y="613.0781"/><rect fill="#FFFFFF" height="14" style="stroke:#181818;stroke-width:1.0;" width="10" x="629.5" y="804.9414"/><rect fill="#FFFFFF" height="29.3105" style="stroke:#181818;stroke-width:1.0;" width="10" x="687" y="429.2148"/><rect fill="#FFFFFF" height="29.3105" style="stroke:#181818;stroke-width:1.0;" width="10" x="687" y="487.8359"/><rect fill="#FFFFFF" height="14" style="stroke:#181818;stroke-width:1.0;" width="10" x="748" y="671.6992"/><rect fill="#FFFFFF" height="14" style="stroke:#181818;stroke-width:1.0;" width="10" x="838" y="898.5625"/><rect fill="#FFFFFF" height="14" style="stroke:#181818;stroke-width:1.0;" width="10" x="838" y="941.873"/><polygon fill="#181818" points="196,63.7988,186,67.7988,196,71.7988,192,67.7988" style="stroke:#181818;stroke-width:1.0;"/><line style="stroke:#181818;stroke-width:1.0;" x1="190" x2="981" y1="67.7988" y2="67.7988"/><text fill="#000000" font-family="sans-serif" font-size="13" lengthAdjust="spacing" textLength="141" x="202" y="63.0566">DeleteCardCommand()</text><rect fill="#E2E2F0" height="30.4883" rx="2.5" ry="2.5" style="stroke:#181818;stroke-width:0.5;" width="165" x="20" y="46.4883"/><text fill="#000000" font-family="sans-serif" font-size="14" lengthAdjust="spacing" textLength="151" x="27" y="67.0234">:DeleteCardCommand</text><polygon fill="#181818" points="323.5,105.2871,333.5,109.2871,323.5,113.2871,327.5,109.2871" style="stroke:#181818;stroke-width:1.0;"/><line style="stroke:#181818;stroke-width:1.0;" x1="112.5" x2="329.5" y1="109.2871" y2="109.2871"/><text fill="#000000" font-family="sans-serif" font-size="13" lengthAdjust="spacing" textLength="87" x="119.5" y="104.5449">CardSelector()</text><rect fill="#E2E2F0" height="30.4883" rx="2.5" ry="2.5" style="stroke:#181818;stroke-width:0.5;" width="106" x="335.5" y="87.9766"/><text fill="#000000" font-family="sans-serif" font-size="14" lengthAdjust="spacing" textLength="92" x="342.5" y="108.5117">:CardSelector</text><polygon fill="#181818" points="123.5,131.4648,113.5,135.4648,123.5,139.4648,119.5,135.4648" style="stroke:#181818;stroke-width:1.0;"/><line style="stroke:#181818;stroke-width:1.0;stroke-dasharray:2.0,2.0;" x1="117.5" x2="387.5" y1="135.4648" y2="135.4648"/><line style="stroke:#181818;stroke-width:1.0;" x1="112.5" x2="159.5" y1="159.7754" y2="159.7754"/><line style="stroke:#181818;stroke-width:1.0;" x1="159.5" x2="159.5" y1="159.7754" y2="172.7754"/><line style="stroke:#181818;stroke-width:1.0;" x1="118.5" x2="159.5" y1="172.7754" y2="172.7754"/><polygon fill="#181818" points="128.5,168.7754,118.5,172.7754,128.5,176.7754,124.5,172.7754" style="stroke:#181818;stroke-width:1.0;"/><text fill="#000000" font-family="sans-serif" font-size="13" lengthAdjust="spacing" textLength="57" x="124.5" y="155.0332">execute()</text><polygon fill="#181818" points="271.5,203.0859,281.5,207.0859,271.5,211.0859,275.5,207.0859" style="stroke:#181818;stroke-width:1.0;"/><line style="stroke:#181818;stroke-width:1.0;" x1="117.5" x2="277.5" y1="207.0859" y2="207.0859"/><text fill="#000000" font-family="sans-serif" font-size="13" lengthAdjust="spacing" textLength="62" x="124.5" y="202.3438">findCard()</text><path d="M241.5,222.0859 L303.5,222.0859 L303.5,229.3965 L293.5,239.3965 L241.5,239.3965 L241.5,222.0859 " fill="#EEEEEE" style="stroke:#000000;stroke-width:1.5;"/><rect fill="none" height="149.5078" style="stroke:#000000;stroke-width:1.5;" width="278" x="241.5" y="222.0859"/><text fill="#000000" font-family="sans-serif" font-size="13" font-weight="bold" lengthAdjust="spacing" textLength="17" x="256.5" y="235.6543">alt</text><text fill="#000000" font-family="sans-serif" font-size="11" font-weight="bold" lengthAdjust="spacing" textLength="196" x="318.5" y="234.7207">[index is specified in CardSelector]</text><polygon fill="#181818" points="371.5,256.707,381.5,260.707,371.5,264.707,375.5,260.707" style="stroke:#181818;stroke-width:1.0;"/><line style="stroke:#181818;stroke-width:1.0;" x1="293.5" x2="377.5" y1="260.707" y2="260.707"/><text fill="#000000" font-family="sans-serif" font-size="13" lengthAdjust="spacing" textLength="63" x="300.5" y="255.9648">getIndex()</text><polygon fill="#181818" points="304.5,286.0176,294.5,290.0176,304.5,294.0176,300.5,290.0176" style="stroke:#181818;stroke-width:1.0;"/><line style="stroke:#181818;stroke-width:1.0;stroke-dasharray:2.0,2.0;" x1="298.5" x2="387.5" y1="290.0176" y2="290.0176"/><text fill="#000000" font-family="sans-serif" font-size="13" lengthAdjust="spacing" textLength="62" x="310.5" y="285.2754">cardIndex</text><line style="stroke:#000000;stroke-width:1.0;stroke-dasharray:2.0,2.0;" x1="241.5" x2="519.5" y1="299.0176" y2="299.0176"/><text fill="#000000" font-family="sans-serif" font-size="11" font-weight="bold" lengthAdjust="spacing" textLength="191" x="246.5" y="309.6523">[uuid is specified in CardSelector]</text><polygon fill="#181818" points="371.5,330.2832,381.5,334.2832,371.5,338.2832,375.5,334.2832" style="stroke:#181818;stroke-width:1.0;"/><line style="stroke:#181818;stroke-width:1.0;" x1="293.5" x2="377.5" y1="334.2832" y2="334.2832"/><text fill="#000000" font-family="sans-serif" font-size="13" lengthAdjust="spacing" textLength="60" x="300.5" y="329.541">getUUID()</text><polygon fill="#181818" points="304.5,359.5938,294.5,363.5938,304.5,367.5938,300.5,363.5938" style="stroke:#181818;stroke-width:1.0;"/><line style="stroke:#181818;stroke-width:1.0;stroke-dasharray:2.0,2.0;" x1="298.5" x2="387.5" y1="363.5938" y2="363.5938"/><text fill="#000000" font-family="sans-serif" font-size="13" lengthAdjust="spacing" textLength="59" x="310.5" y="358.8516">cardUUID</text><polygon fill="#181818" points="128.5,395.9043,118.5,399.9043,128.5,403.9043,124.5,399.9043" style="stroke:#181818;stroke-width:1.0;"/><line style="stroke:#181818;stroke-width:1.0;stroke-dasharray:2.0,2.0;" x1="122.5" x2="287.5" y1="399.9043" y2="399.9043"/><text fill="#000000" font-family="sans-serif" font-size="13" lengthAdjust="spacing" textLength="83" x="134.5" y="395.1621">cardToDelete</text><polygon fill="#181818" points="675,425.2148,685,429.2148,675,433.2148,679,429.2148" style="stroke:#181818;stroke-width:1.0;"/><line style="stroke:#181818;stroke-width:1.0;" x1="117.5" x2="681" y1="429.2148" y2="429.2148"/><text fill="#000000" font-family="sans-serif" font-size="13" lengthAdjust="spacing" textLength="173" x="124.5" y="424.4727">getTagsUUID(cardToDelete)</text><polygon fill="#181818" points="128.5,454.5254,118.5,458.5254,128.5,462.5254,124.5,458.5254" style="stroke:#181818;stroke-width:1.0;"/><line style="stroke:#181818;stroke-width:1.0;stroke-dasharray:2.0,2.0;" x1="122.5" x2="691" y1="458.5254" y2="458.5254"/><text fill="#000000" font-family="sans-serif" font-size="13" lengthAdjust="spacing" textLength="59" x="134.5" y="453.7832">tagsUUID</text><polygon fill="#181818" points="675,483.8359,685,487.8359,675,491.8359,679,487.8359" style="stroke:#181818;stroke-width:1.0;"/><line style="stroke:#181818;stroke-width:1.0;" x1="117.5" x2="681" y1="487.8359" y2="487.8359"/><text fill="#000000" font-family="sans-serif" font-size="13" lengthAdjust="spacing" textLength="186" x="124.5" y="483.0938">getDecksUUID(cardToDelete))</text><polygon fill="#181818" points="128.5,513.1465,118.5,517.1465,128.5,521.1465,124.5,517.1465" style="stroke:#181818;stroke-width:1.0;"/><line style="stroke:#181818;stroke-width:1.0;stroke-dasharray:2.0,2.0;" x1="122.5" x2="691" y1="517.1465" y2="517.1465"/><text fill="#000000" font-family="sans-serif" font-size="13" lengthAdjust="spacing" textLength="69" x="134.5" y="512.4043">decksUUID</text><line style="stroke:#181818;stroke-width:1.0;" x1="117.5" x2="164.5" y1="541.457" y2="541.457"/><line style="stroke:#181818;stroke-width:1.0;" x1="164.5" x2="164.5" y1="541.457" y2="554.457"/><line style="stroke:#181818;stroke-width:1.0;" x1="123.5" x2="164.5" y1="554.457" y2="554.457"/><polygon fill="#181818" points="133.5,550.457,123.5,554.457,133.5,558.457,129.5,554.457" style="stroke:#181818;stroke-width:1.0;"/><text fill="#000000" font-family="sans-serif" font-size="13" lengthAdjust="spacing" textLength="152" x="129.5" y="536.7148">cardRemovalFromDeck()</text><path d="M10,574.457 L84,574.457 L84,581.7676 L74,591.7676 L10,591.7676 L10,574.457 " fill="#EEEEEE" style="stroke:#000000;stroke-width:1.5;"/><rect fill="none" height="119.2422" style="stroke:#000000;stroke-width:1.5;" width="778.5" x="10" y="574.457"/><text fill="#000000" font-family="sans-serif" font-size="13" font-weight="bold" lengthAdjust="spacing" textLength="29" x="25" y="588.0254">loop</text><text fill="#000000" font-family="sans-serif" font-size="11" font-weight="bold" lengthAdjust="spacing" textLength="270" x="99" y="587.0918">[until all uuid in decksUUID have been checked]</text><polygon fill="#181818" points="548.5,609.0781,558.5,613.0781,548.5,617.0781,552.5,613.0781" style="stroke:#181818;stroke-width:1.0;"/><line style="stroke:#181818;stroke-width:1.0;" x1="122.5" x2="554.5" y1="613.0781" y2="613.0781"/><text fill="#000000" font-family="sans-serif" font-size="13" lengthAdjust="spacing" textLength="129" x="129.5" y="608.3359">findDeckFromUUID()</text><polygon fill="#181818" points="133.5,638.3887,123.5,642.3887,133.5,646.3887,129.5,642.3887" style="stroke:#181818;stroke-width:1.0;"/><line style="stroke:#181818;stroke-width:1.0;stroke-dasharray:2.0,2.0;" x1="127.5" x2="564.5" y1="642.3887" y2="642.3887"/><text fill="#000000" font-family="sans-serif" font-size="13" lengthAdjust="spacing" textLength="69" x="139.5" y="637.6465">deckFound</text><polygon fill="#181818" points="736,667.6992,746,671.6992,736,675.6992,740,671.6992" style="stroke:#181818;stroke-width:1.0;"/><line style="stroke:#181818;stroke-width:1.0;" x1="122.5" x2="742" y1="671.6992" y2="671.6992"/><text fill="#000000" font-family="sans-serif" font-size="13" lengthAdjust="spacing" textLength="169" x="129.5" y="666.957">delete card uuid from deck</text><polygon fill="#181818" points="133.5,681.6992,123.5,685.6992,133.5,689.6992,129.5,685.6992" style="stroke:#181818;stroke-width:1.0;"/><line style="stroke:#181818;stroke-width:1.0;stroke-dasharray:2.0,2.0;" x1="127.5" x2="752" y1="685.6992" y2="685.6992"/><path d="M10,707.6992 L84,707.6992 L84,715.0098 L74,725.0098 L10,725.0098 L10,707.6992 " fill="#EEEEEE" style="stroke:#000000;stroke-width:1.5;"/><rect fill="none" height="119.2422" style="stroke:#000000;stroke-width:1.5;" width="656.5" x="10" y="707.6992"/><text fill="#000000" font-family="sans-serif" font-size="13" font-weight="bold" lengthAdjust="spacing" textLength="29" x="25" y="721.2676">loop</text><text fill="#000000" font-family="sans-serif" font-size="11" font-weight="bold" lengthAdjust="spacing" textLength="261" x="99" y="720.334">[until all uuid in tagsUUID have been checked]</text><polygon fill="#181818" points="468,742.3203,478,746.3203,468,750.3203,472,746.3203" style="stroke:#181818;stroke-width:1.0;"/><line style="stroke:#181818;stroke-width:1.0;" x1="122.5" x2="474" y1="746.3203" y2="746.3203"/><text fill="#000000" font-family="sans-serif" font-size="13" lengthAdjust="spacing" textLength="120" x="129.5" y="741.5781">findTagFromUUID()</text><polygon fill="#181818" points="133.5,771.6309,123.5,775.6309,133.5,779.6309,129.5,775.6309" style="stroke:#181818;stroke-width:1.0;"/><line style="stroke:#181818;stroke-width:1.0;stroke-dasharray:2.0,2.0;" x1="127.5" x2="484" y1="775.6309" y2="775.6309"/><text fill="#000000" font-family="sans-serif" font-size="13" lengthAdjust="spacing" textLength="59" x="139.5" y="770.8887">tagFound</text><polygon fill="#181818" points="617.5,800.9414,627.5,804.9414,617.5,808.9414,621.5,804.9414" style="stroke:#181818;stroke-width:1.0;"/><line style="stroke:#181818;stroke-width:1.0;" x1="122.5" x2="623.5" y1="804.9414" y2="804.9414"/><text fill="#000000" font-family="sans-serif" font-size="13" lengthAdjust="spacing" textLength="159" x="129.5" y="800.1992">delete card uuid from tag</text><polygon fill="#181818" points="133.5,814.9414,123.5,818.9414,133.5,822.9414,129.5,818.9414" style="stroke:#181818;stroke-width:1.0;"/><line style="stroke:#181818;stroke-width:1.0;stroke-dasharray:2.0,2.0;" x1="127.5" x2="633.5" y1="818.9414" y2="818.9414"/><polygon fill="#181818" points="271.5,851.252,281.5,855.252,271.5,859.252,275.5,855.252" style="stroke:#181818;stroke-width:1.0;"/><line style="stroke:#181818;stroke-width:1.0;" x1="122.5" x2="277.5" y1="855.252" y2="855.252"/><text fill="#000000" font-family="sans-serif" font-size="13" lengthAdjust="spacing" textLength="123" x="129.5" y="850.5098">delete(cardSelector)</text><polygon fill="#181818" points="133.5,865.252,123.5,869.252,133.5,873.252,129.5,869.252" style="stroke:#181818;stroke-width:1.0;"/><line style="stroke:#181818;stroke-width:1.0;stroke-dasharray:2.0,2.0;" x1="127.5" x2="287.5" y1="869.252" y2="869.252"/><polygon fill="#181818" points="826,894.5625,836,898.5625,826,902.5625,830,898.5625" style="stroke:#181818;stroke-width:1.0;"/><line style="stroke:#181818;stroke-width:1.0;" x1="122.5" x2="832" y1="898.5625" y2="898.5625"/><text fill="#000000" font-family="sans-serif" font-size="13" lengthAdjust="spacing" textLength="132" x="129.5" y="893.8203">printDeleteSuccess();</text><polygon fill="#181818" points="133.5,908.5625,123.5,912.5625,133.5,916.5625,129.5,912.5625" style="stroke:#181818;stroke-width:1.0;"/><line style="stroke:#181818;stroke-width:1.0;stroke-dasharray:2.0,2.0;" x1="127.5" x2="842" y1="912.5625" y2="912.5625"/><polygon fill="#181818" points="826,937.873,836,941.873,826,945.873,830,941.873" style="stroke:#181818;stroke-width:1.0;"/><line style="stroke:#181818;stroke-width:1.0;" x1="122.5" x2="832" y1="941.873" y2="941.873"/><text fill="#000000" font-family="sans-serif" font-size="13" lengthAdjust="spacing" textLength="201" x="129.5" y="937.1309">printNumOfQuestions(cardList);</text><polygon fill="#181818" points="133.5,951.873,123.5,955.873,133.5,959.873,129.5,955.873" style="stroke:#181818;stroke-width:1.0;"/><line style="stroke:#181818;stroke-width:1.0;stroke-dasharray:2.0,2.0;" x1="127.5" x2="842" y1="955.873" y2="955.873"/><!--SRC=[fPJDJkGm3CVlUGgB4nnu0P2u348QxMeN5kO1Gk92HDjKYJCBRu-Jjg6Tj0pitchdxvy_ubG6ibAHsKj2iAqGdNHabEbaIt1oSOqr4cwaqnlRDBBL9o0z5Dw3g7ZoqtXAuj5OqDmpHv5rMJSw3hGFyYdZXk-YJlMI9QDHKaR2GYsvXWLofXwSxJowRKleAgamYMOU8SJ6OHniER3u_GFV_bgdRwNZA3Y_AcLmKVfEpqI-i98xPfnDi-Hoigc2yqnDJk6GWkDrM0nTgXDVKGL23btD5k-4bPLfTJHPAcHDm2Q-Wl7WErIcCgZPDMyWHvTrFo5j8o3N38e5oIMmzWWX6Fq_zDrkUps7Huz07lR4zs3xjiLw-psEjyydv3GgusauFKQ9oxY0oHmzdd_Z1YFf3pPsB-iRPvkO8bvHRMq7eILJWwphOPoJ3F0izmYFY3o8PtQY5W0hIVjtEUn0D6EYOS00azflR8ZB_0c88JgTfRhxiYgcfV0CYzS4iOFLFiQ9VxsDuGyqTC7MKXEC_Rm7ZbjjWOENEZZsi7fOseXnXOyyvDdlYWcTCotrolkW57f_UdRv3uXVeVbTtGNqP6phKqMnnW_MEm00]--></g></svg>