<?xml version="1.0" encoding="us-ascii" standalone="no"?><svg xmlns="http://www.w3.org/2000/svg" xmlns:xlink="http://www.w3.org/1999/xlink" contentStyleType="text/css" height="374px" preserveAspectRatio="none" style="width:614px;height:374px;background:#FFFFFF;" version="1.1" viewBox="0 0 614 374" width="614px" zoomAndPan="magnify"><defs/><g><rect fill="#FFFFFF" height="172.1094" style="stroke:#181818;stroke-width:1.0;" width="10" x="75" y="148.5977"/><rect fill="#FFFFFF" height="111.6211" style="stroke:#181818;stroke-width:1.0;" width="10" x="80" y="188.0859"/><rect fill="#FFFFFF" height="31.4883" style="stroke:#181818;stroke-width:1.0;" width="10" x="185.5" y="77.7988"/><rect fill="#FFFFFF" height="14" style="stroke:#181818;stroke-width:1.0;" width="10" x="258" y="222.3965"/><rect fill="#FFFFFF" height="14" style="stroke:#181818;stroke-width:1.0;" width="10" x="386" y="265.707"/><line style="stroke:#181818;stroke-width:0.5;stroke-dasharray:5.0,5.0;" x1="80" x2="80" y1="148.0313" y2="338.707"/><line style="stroke:#181818;stroke-width:0.5;stroke-dasharray:5.0,5.0;" x1="190" x2="190" y1="77.2324" y2="338.707"/><line style="stroke:#181818;stroke-width:0.5;stroke-dasharray:5.0,5.0;" x1="263" x2="263" y1="36.4883" y2="338.707"/><line style="stroke:#181818;stroke-width:0.5;stroke-dasharray:5.0,5.0;" x1="390.5" x2="390.5" y1="36.4883" y2="338.707"/><line style="stroke:#181818;stroke-width:0.5;stroke-dasharray:5.0,5.0;" x1="531.5" x2="531.5" y1="36.4883" y2="338.707"/><rect fill="#E2E2F0" height="30.4883" rx="2.5" ry="2.5" style="stroke:#181818;stroke-width:0.5;" width="150" x="5" y="337.707"/><text fill="#000000" font-family="sans-serif" font-size="14" lengthAdjust="spacing" textLength="136" x="12" y="358.2422">:AddCardCommand</text><rect fill="#E2E2F0" height="30.4883" rx="2.5" ry="2.5" style="stroke:#181818;stroke-width:0.5;" width="51" x="165" y="337.707"/><text fill="#000000" font-family="sans-serif" font-size="14" lengthAdjust="spacing" textLength="37" x="172" y="358.2422">:Card</text><rect fill="#E2E2F0" height="30.4883" rx="2.5" ry="2.5" style="stroke:#181818;stroke-width:0.5;" width="74" x="226" y="5"/><text fill="#000000" font-family="sans-serif" font-size="14" lengthAdjust="spacing" textLength="60" x="233" y="25.5352">:CardList</text><rect fill="#E2E2F0" height="30.4883" rx="2.5" ry="2.5" style="stroke:#181818;stroke-width:0.5;" width="74" x="226" y="337.707"/><text fill="#000000" font-family="sans-serif" font-size="14" lengthAdjust="spacing" textLength="60" x="233" y="358.2422">:CardList</text><rect fill="#E2E2F0" height="30.4883" rx="2.5" ry="2.5" style="stroke:#181818;stroke-width:0.5;" width="109" x="336.5" y="5"/><text fill="#000000" font-family="sans-serif" font-size="14" lengthAdjust="spacing" textLength="95" x="343.5" y="25.5352">:UserInterface</text><rect fill="#E2E2F0" height="30.4883" rx="2.5" ry="2.5" style="stroke:#181818;stroke-width:0.5;" width="109" x="336.5" y="337.707"/><text fill="#000000" font-family="sans-serif" font-size="14" lengthAdjust="spacing" textLength="95" x="343.5" y="358.2422">:UserInterface</text><rect fill="#E2E2F0" height="30.4883" rx="2.5" ry="2.5" style="stroke:#181818;stroke-width:0.5;" width="153" x="455.5" y="5"/><text fill="#000000" font-family="sans-serif" font-size="14" lengthAdjust="spacing" textLength="139" x="462.5" y="25.5352">:CardKeywordParser</text><rect fill="#E2E2F0" height="30.4883" rx="2.5" ry="2.5" style="stroke:#181818;stroke-width:0.5;" width="153" x="455.5" y="337.707"/><text fill="#000000" font-family="sans-serif" font-size="14" lengthAdjust="spacing" textLength="139" x="462.5" y="358.2422">:CardKeywordParser</text><rect fill="#FFFFFF" height="172.1094" style="stroke:#181818;stroke-width:1.0;" width="10" x="75" y="148.5977"/><rect fill="#FFFFFF" height="111.6211" style="stroke:#181818;stroke-width:1.0;" width="10" x="80" y="188.0859"/><rect fill="#FFFFFF" height="31.4883" style="stroke:#181818;stroke-width:1.0;" width="10" x="185.5" y="77.7988"/><rect fill="#FFFFFF" height="14" style="stroke:#181818;stroke-width:1.0;" width="10" x="258" y="222.3965"/><rect fill="#FFFFFF" height="14" style="stroke:#181818;stroke-width:1.0;" width="10" x="386" y="265.707"/><polygon fill="#181818" points="227,63.7988,217,67.7988,227,71.7988,223,67.7988" style="stroke:#181818;stroke-width:1.0;"/><line style="stroke:#181818;stroke-width:1.0;" x1="221" x2="531" y1="67.7988" y2="67.7988"/><text fill="#000000" font-family="sans-serif" font-size="13" lengthAdjust="spacing" textLength="113" x="233" y="63.0566">create card to add</text><rect fill="#E2E2F0" height="30.4883" rx="2.5" ry="2.5" style="stroke:#181818;stroke-width:0.5;" width="51" x="165" y="46.4883"/><text fill="#000000" font-family="sans-serif" font-size="14" lengthAdjust="spacing" textLength="37" x="172" y="67.0234">:Card</text><polygon fill="#181818" points="520,105.2871,530,109.2871,520,113.2871,524,109.2871" style="stroke:#181818;stroke-width:1.0;"/><line style="stroke:#181818;stroke-width:1.0;stroke-dasharray:2.0,2.0;" x1="190.5" x2="526" y1="109.2871" y2="109.2871"/><text fill="#000000" font-family="sans-serif" font-size="13" lengthAdjust="spacing" textLength="68" x="197.5" y="104.5449">cardToAdd</text><polygon fill="#181818" points="166,134.5977,156,138.5977,166,142.5977,162,138.5977" style="stroke:#181818;stroke-width:1.0;"/><line style="stroke:#181818;stroke-width:1.0;" x1="160" x2="531" y1="138.5977" y2="138.5977"/><text fill="#000000" font-family="sans-serif" font-size="13" lengthAdjust="spacing" textLength="194" x="172" y="133.8555">AddCardCommand(cardToAdd)</text><rect fill="#E2E2F0" height="30.4883" rx="2.5" ry="2.5" style="stroke:#181818;stroke-width:0.5;" width="150" x="5" y="117.2871"/><text fill="#000000" font-family="sans-serif" font-size="14" lengthAdjust="spacing" textLength="136" x="12" y="137.8223">:AddCardCommand</text><line style="stroke:#181818;stroke-width:1.0;" x1="85" x2="132" y1="175.0859" y2="175.0859"/><line style="stroke:#181818;stroke-width:1.0;" x1="132" x2="132" y1="175.0859" y2="188.0859"/><line style="stroke:#181818;stroke-width:1.0;" x1="91" x2="132" y1="188.0859" y2="188.0859"/><polygon fill="#181818" points="101,184.0859,91,188.0859,101,192.0859,97,188.0859" style="stroke:#181818;stroke-width:1.0;"/><text fill="#000000" font-family="sans-serif" font-size="13" lengthAdjust="spacing" textLength="57" x="97" y="170.3438">execute()</text><polygon fill="#181818" points="246,218.3965,256,222.3965,246,226.3965,250,222.3965" style="stroke:#181818;stroke-width:1.0;"/><line style="stroke:#181818;stroke-width:1.0;" x1="90" x2="252" y1="222.3965" y2="222.3965"/><text fill="#000000" font-family="sans-serif" font-size="13" lengthAdjust="spacing" textLength="128" x="97" y="217.6543">addCard(cardToAdd)</text><polygon fill="#181818" points="101,232.3965,91,236.3965,101,240.3965,97,236.3965" style="stroke:#181818;stroke-width:1.0;"/><line style="stroke:#181818;stroke-width:1.0;stroke-dasharray:2.0,2.0;" x1="95" x2="262" y1="236.3965" y2="236.3965"/><polygon fill="#181818" points="374,261.707,384,265.707,374,269.707,378,265.707" style="stroke:#181818;stroke-width:1.0;"/><line style="stroke:#181818;stroke-width:1.0;" x1="90" x2="380" y1="265.707" y2="265.707"/><text fill="#000000" font-family="sans-serif" font-size="13" lengthAdjust="spacing" textLength="277" x="97" y="260.9648">print success message and number of cards</text><polygon fill="#181818" points="101,275.707,91,279.707,101,283.707,97,279.707" style="stroke:#181818;stroke-width:1.0;"/><line style="stroke:#181818;stroke-width:1.0;stroke-dasharray:2.0,2.0;" x1="95" x2="390" y1="279.707" y2="279.707"/><line style="stroke:#181818;stroke-width:1.0;stroke-dasharray:2.0,2.0;" x1="90" x2="132" y1="298.707" y2="298.707"/><line style="stroke:#181818;stroke-width:1.0;stroke-dasharray:2.0,2.0;" x1="132" x2="132" y1="298.707" y2="311.707"/><line style="stroke:#181818;stroke-width:1.0;stroke-dasharray:2.0,2.0;" x1="85" x2="132" y1="311.707" y2="311.707"/><polygon fill="#181818" points="95,307.707,85,311.707,95,315.707,91,311.707" style="stroke:#181818;stroke-width:1.0;"/><polygon fill="#181818" points="520,316.707,530,320.707,520,324.707,524,320.707" style="stroke:#181818;stroke-width:1.0;"/><line style="stroke:#181818;stroke-width:1.0;stroke-dasharray:2.0,2.0;" x1="80" x2="526" y1="320.707" y2="320.707"/><!--SRC=[RP0nZiCW44LxJZ5o5HUvG8gLLgwYf4YH760M9YiAWpKCoURs0Qn5YvV6cFyV7-PZ58zQx0E5m3kb5cInsYxe18R3fp4JifdyFACp0s20LjhmsIbK_kbuPnka-dcpOMw1-EY4-8wQ2jWedSGJlPwUpGKvWJMwKPMQcF9yvL7_RDX_50SEe5TEvvruG6CKaqHsHRhwD7iDs_JGZMsPT44hx6hggDI6xPsc7z9HQ3TsuDz24uQh-JTzdQ9tITDlEhomJTs6g3M507Fwu3T1XbsSlz9O_bxA23MpNTy0]--></g></svg>