<?xml version="1.0" encoding="us-ascii" standalone="no"?><svg xmlns="http://www.w3.org/2000/svg" xmlns:xlink="http://www.w3.org/1999/xlink" contentStyleType="text/css" height="938px" preserveAspectRatio="none" style="width:942px;height:938px;background:#FFFFFF;" version="1.1" viewBox="0 0 942 938" width="942px" zoomAndPan="magnify"><defs/><g><rect fill="#FFFFFF" height="736.7227" style="stroke:#181818;stroke-width:1.0;" width="10" x="82.5" y="148.5977"/><rect fill="#FFFFFF" height="676.2344" style="stroke:#181818;stroke-width:1.0;" width="10" x="87.5" y="188.0859"/><rect fill="#FFFFFF" height="68.3105" style="stroke:#181818;stroke-width:1.0;" width="10" x="92.5" y="569.7676"/><rect fill="#FFFFFF" height="68.3105" style="stroke:#181818;stroke-width:1.0;" width="10" x="92.5" y="682.3887"/><rect fill="#FFFFFF" height="192.8184" style="stroke:#181818;stroke-width:1.0;" width="10" x="263.5" y="222.3965"/><rect fill="#FFFFFF" height="14" style="stroke:#181818;stroke-width:1.0;" width="10" x="263.5" y="787.0098"/><rect fill="#FFFFFF" height="31.4883" style="stroke:#181818;stroke-width:1.0;" width="10" x="363.5" y="77.7988"/><rect fill="#FFFFFF" height="29.3105" style="stroke:#181818;stroke-width:1.0;" width="10" x="363.5" y="276.0176"/><rect fill="#FFFFFF" height="29.3105" style="stroke:#181818;stroke-width:1.0;" width="10" x="363.5" y="349.5938"/><rect fill="#FFFFFF" height="14" style="stroke:#181818;stroke-width:1.0;" width="10" x="470.5" y="716.6992"/><rect fill="#FFFFFF" height="14" style="stroke:#181818;stroke-width:1.0;" width="10" x="551" y="604.0781"/><rect fill="#FFFFFF" height="29.3105" style="stroke:#181818;stroke-width:1.0;" width="10" x="623.5" y="444.5254"/><rect fill="#FFFFFF" height="29.3105" style="stroke:#181818;stroke-width:1.0;" width="10" x="623.5" y="503.1465"/><rect fill="#FFFFFF" height="14" style="stroke:#181818;stroke-width:1.0;" width="10" x="713.5" y="830.3203"/><rect fill="none" height="149.5078" style="stroke:#000000;stroke-width:1.5;" width="276" x="221.5" y="237.3965"/><line style="stroke:#181818;stroke-width:0.5;stroke-dasharray:5.0,5.0;" x1="87" x2="87" y1="148.0313" y2="903.3203"/><line style="stroke:#181818;stroke-width:0.5;stroke-dasharray:5.0,5.0;" x1="268.5" x2="268.5" y1="36.4883" y2="903.3203"/><line style="stroke:#181818;stroke-width:0.5;stroke-dasharray:5.0,5.0;" x1="368.5" x2="368.5" y1="77.2324" y2="903.3203"/><line style="stroke:#181818;stroke-width:0.5;stroke-dasharray:5.0,5.0;" x1="475" x2="475" y1="36.4883" y2="903.3203"/><line style="stroke:#181818;stroke-width:0.5;stroke-dasharray:5.0,5.0;" x1="556" x2="556" y1="36.4883" y2="903.3203"/><line style="stroke:#181818;stroke-width:0.5;stroke-dasharray:5.0,5.0;" x1="628" x2="628" y1="36.4883" y2="903.3203"/><line style="stroke:#181818;stroke-width:0.5;stroke-dasharray:5.0,5.0;" x1="718" x2="718" y1="36.4883" y2="903.3203"/><line style="stroke:#181818;stroke-width:0.5;stroke-dasharray:5.0,5.0;" x1="859" x2="859" y1="36.4883" y2="903.3203"/><rect fill="#E2E2F0" height="30.4883" rx="2.5" ry="2.5" style="stroke:#181818;stroke-width:0.5;" width="165" x="5" y="902.3203"/><text fill="#000000" font-family="sans-serif" font-size="14" lengthAdjust="spacing" textLength="151" x="12" y="922.8555">:DeleteCardCommand</text><rect fill="#E2E2F0" height="30.4883" rx="2.5" ry="2.5" style="stroke:#181818;stroke-width:0.5;" width="74" x="231.5" y="5"/><text fill="#000000" font-family="sans-serif" font-size="14" lengthAdjust="spacing" textLength="60" x="238.5" y="25.5352">:CardList</text><rect fill="#E2E2F0" height="30.4883" rx="2.5" ry="2.5" style="stroke:#181818;stroke-width:0.5;" width="74" x="231.5" y="902.3203"/><text fill="#000000" font-family="sans-serif" font-size="14" lengthAdjust="spacing" textLength="60" x="238.5" y="922.8555">:CardList</text><rect fill="#E2E2F0" height="30.4883" rx="2.5" ry="2.5" style="stroke:#181818;stroke-width:0.5;" width="106" x="315.5" y="902.3203"/><text fill="#000000" font-family="sans-serif" font-size="14" lengthAdjust="spacing" textLength="92" x="322.5" y="922.8555">:CardSelector</text><rect fill="#E2E2F0" height="30.4883" rx="2.5" ry="2.5" style="stroke:#181818;stroke-width:0.5;" width="67" x="442" y="5"/><text fill="#000000" font-family="sans-serif" font-size="14" lengthAdjust="spacing" textLength="53" x="449" y="25.5352">:TagList</text><rect fill="#E2E2F0" height="30.4883" rx="2.5" ry="2.5" style="stroke:#181818;stroke-width:0.5;" width="67" x="442" y="902.3203"/><text fill="#000000" font-family="sans-serif" font-size="14" lengthAdjust="spacing" textLength="53" x="449" y="922.8555">:TagList</text><rect fill="#E2E2F0" height="30.4883" rx="2.5" ry="2.5" style="stroke:#181818;stroke-width:0.5;" width="74" x="519" y="5"/><text fill="#000000" font-family="sans-serif" font-size="14" lengthAdjust="spacing" textLength="60" x="526" y="25.5352">:DeckList</text><rect fill="#E2E2F0" height="30.4883" rx="2.5" ry="2.5" style="stroke:#181818;stroke-width:0.5;" width="74" x="519" y="902.3203"/><text fill="#000000" font-family="sans-serif" font-size="14" lengthAdjust="spacing" textLength="60" x="526" y="922.8555">:DeckList</text><rect fill="#E2E2F0" height="30.4883" rx="2.5" ry="2.5" style="stroke:#181818;stroke-width:0.5;" width="51" x="603" y="5"/><text fill="#000000" font-family="sans-serif" font-size="14" lengthAdjust="spacing" textLength="37" x="610" y="25.5352">:Card</text><rect fill="#E2E2F0" height="30.4883" rx="2.5" ry="2.5" style="stroke:#181818;stroke-width:0.5;" width="51" x="603" y="902.3203"/><text fill="#000000" font-family="sans-serif" font-size="14" lengthAdjust="spacing" textLength="37" x="610" y="922.8555">:Card</text><rect fill="#E2E2F0" height="30.4883" rx="2.5" ry="2.5" style="stroke:#181818;stroke-width:0.5;" width="109" x="664" y="5"/><text fill="#000000" font-family="sans-serif" font-size="14" lengthAdjust="spacing" textLength="95" x="671" y="25.5352">:UserInterface</text><rect fill="#E2E2F0" height="30.4883" rx="2.5" ry="2.5" style="stroke:#181818;stroke-width:0.5;" width="109" x="664" y="902.3203"/><text fill="#000000" font-family="sans-serif" font-size="14" lengthAdjust="spacing" textLength="95" x="671" y="922.8555">:UserInterface</text><rect fill="#E2E2F0" height="30.4883" rx="2.5" ry="2.5" style="stroke:#181818;stroke-width:0.5;" width="153" x="783" y="5"/><text fill="#000000" font-family="sans-serif" font-size="14" lengthAdjust="spacing" textLength="139" x="790" y="25.5352">:CardKeywordParser</text><rect fill="#E2E2F0" height="30.4883" rx="2.5" ry="2.5" style="stroke:#181818;stroke-width:0.5;" width="153" x="783" y="902.3203"/><text fill="#000000" font-family="sans-serif" font-size="14" lengthAdjust="spacing" textLength="139" x="790" y="922.8555">:CardKeywordParser</text><rect fill="#FFFFFF" height="736.7227" style="stroke:#181818;stroke-width:1.0;" width="10" x="82.5" y="148.5977"/><rect fill="#FFFFFF" height="676.2344" style="stroke:#181818;stroke-width:1.0;" width="10" x="87.5" y="188.0859"/><rect fill="#FFFFFF" height="68.3105" style="stroke:#181818;stroke-width:1.0;" width="10" x="92.5" y="569.7676"/><rect fill="#FFFFFF" height="68.3105" style="stroke:#181818;stroke-width:1.0;" width="10" x="92.5" y="682.3887"/><rect fill="#FFFFFF" height="192.8184" style="stroke:#181818;stroke-width:1.0;" width="10" x="263.5" y="222.3965"/><rect fill="#FFFFFF" height="14" style="stroke:#181818;stroke-width:1.0;" width="10" x="263.5" y="787.0098"/><rect fill="#FFFFFF" height="31.4883" style="stroke:#181818;stroke-width:1.0;" width="10" x="363.5" y="77.7988"/><rect fill="#FFFFFF" height="29.3105" style="stroke:#181818;stroke-width:1.0;" width="10" x="363.5" y="276.0176"/><rect fill="#FFFFFF" height="29.3105" style="stroke:#181818;stroke-width:1.0;" width="10" x="363.5" y="349.5938"/><rect fill="#FFFFFF" height="14" style="stroke:#181818;stroke-width:1.0;" width="10" x="470.5" y="716.6992"/><rect fill="#FFFFFF" height="14" style="stroke:#181818;stroke-width:1.0;" width="10" x="551" y="604.0781"/><rect fill="#FFFFFF" height="29.3105" style="stroke:#181818;stroke-width:1.0;" width="10" x="623.5" y="444.5254"/><rect fill="#FFFFFF" height="29.3105" style="stroke:#181818;stroke-width:1.0;" width="10" x="623.5" y="503.1465"/><rect fill="#FFFFFF" height="14" style="stroke:#181818;stroke-width:1.0;" width="10" x="713.5" y="830.3203"/><polygon fill="#181818" points="432.5,63.7988,422.5,67.7988,432.5,71.7988,428.5,67.7988" style="stroke:#181818;stroke-width:1.0;"/><line style="stroke:#181818;stroke-width:1.0;" x1="426.5" x2="858.5" y1="67.7988" y2="67.7988"/><text fill="#000000" font-family="sans-serif" font-size="13" lengthAdjust="spacing" textLength="219" x="438.5" y="63.0566">create cardSelector to identify card</text><rect fill="#E2E2F0" height="30.4883" rx="2.5" ry="2.5" style="stroke:#181818;stroke-width:0.5;" width="106" x="315.5" y="46.4883"/><text fill="#000000" font-family="sans-serif" font-size="14" lengthAdjust="spacing" textLength="92" x="322.5" y="67.0234">:CardSelector</text><polygon fill="#181818" points="847.5,105.2871,857.5,109.2871,847.5,113.2871,851.5,109.2871" style="stroke:#181818;stroke-width:1.0;"/><line style="stroke:#181818;stroke-width:1.0;stroke-dasharray:2.0,2.0;" x1="368.5" x2="853.5" y1="109.2871" y2="109.2871"/><text fill="#000000" font-family="sans-serif" font-size="13" lengthAdjust="spacing" textLength="77" x="375.5" y="104.5449">cardSelector</text><polygon fill="#181818" points="181,134.5977,171,138.5977,181,142.5977,177,138.5977" style="stroke:#181818;stroke-width:1.0;"/><line style="stroke:#181818;stroke-width:1.0;" x1="175" x2="858.5" y1="138.5977" y2="138.5977"/><text fill="#000000" font-family="sans-serif" font-size="13" lengthAdjust="spacing" textLength="218" x="187" y="133.8555">DeleteCardCommand(cardSelector)</text><rect fill="#E2E2F0" height="30.4883" rx="2.5" ry="2.5" style="stroke:#181818;stroke-width:0.5;" width="165" x="5" y="117.2871"/><text fill="#000000" font-family="sans-serif" font-size="14" lengthAdjust="spacing" textLength="151" x="12" y="137.8223">:DeleteCardCommand</text><line style="stroke:#181818;stroke-width:1.0;" x1="92.5" x2="139.5" y1="175.0859" y2="175.0859"/><line style="stroke:#181818;stroke-width:1.0;" x1="139.5" x2="139.5" y1="175.0859" y2="188.0859"/><line style="stroke:#181818;stroke-width:1.0;" x1="98.5" x2="139.5" y1="188.0859" y2="188.0859"/><polygon fill="#181818" points="108.5,184.0859,98.5,188.0859,108.5,192.0859,104.5,188.0859" style="stroke:#181818;stroke-width:1.0;"/><text fill="#000000" font-family="sans-serif" font-size="13" lengthAdjust="spacing" textLength="57" x="104.5" y="170.3438">execute()</text><polygon fill="#181818" points="251.5,218.3965,261.5,222.3965,251.5,226.3965,255.5,222.3965" style="stroke:#181818;stroke-width:1.0;"/><line style="stroke:#181818;stroke-width:1.0;" x1="97.5" x2="257.5" y1="222.3965" y2="222.3965"/><text fill="#000000" font-family="sans-serif" font-size="13" lengthAdjust="spacing" textLength="62" x="104.5" y="217.6543">findCard()</text><path d="M221.5,237.3965 L283.5,237.3965 L283.5,244.707 L273.5,254.707 L221.5,254.707 L221.5,237.3965 " fill="#EEEEEE" style="stroke:#000000;stroke-width:1.5;"/><rect fill="none" height="149.5078" style="stroke:#000000;stroke-width:1.5;" width="276" x="221.5" y="237.3965"/><text fill="#000000" font-family="sans-serif" font-size="13" font-weight="bold" lengthAdjust="spacing" textLength="17" x="236.5" y="250.9648">alt</text><text fill="#000000" font-family="sans-serif" font-size="11" font-weight="bold" lengthAdjust="spacing" textLength="194" x="298.5" y="250.0313">[index is specified in cardSelector]</text><polygon fill="#181818" points="351.5,272.0176,361.5,276.0176,351.5,280.0176,355.5,276.0176" style="stroke:#181818;stroke-width:1.0;"/><line style="stroke:#181818;stroke-width:1.0;" x1="273.5" x2="357.5" y1="276.0176" y2="276.0176"/><text fill="#000000" font-family="sans-serif" font-size="13" lengthAdjust="spacing" textLength="63" x="280.5" y="271.2754">getIndex()</text><polygon fill="#181818" points="284.5,301.3281,274.5,305.3281,284.5,309.3281,280.5,305.3281" style="stroke:#181818;stroke-width:1.0;"/><line style="stroke:#181818;stroke-width:1.0;stroke-dasharray:2.0,2.0;" x1="278.5" x2="367.5" y1="305.3281" y2="305.3281"/><text fill="#000000" font-family="sans-serif" font-size="13" lengthAdjust="spacing" textLength="62" x="290.5" y="300.5859">cardIndex</text><line style="stroke:#000000;stroke-width:1.0;stroke-dasharray:2.0,2.0;" x1="221.5" x2="497.5" y1="314.3281" y2="314.3281"/><text fill="#000000" font-family="sans-serif" font-size="11" font-weight="bold" lengthAdjust="spacing" textLength="189" x="226.5" y="324.9629">[uuid is specified in cardSelector]</text><polygon fill="#181818" points="351.5,345.5938,361.5,349.5938,351.5,353.5938,355.5,349.5938" style="stroke:#181818;stroke-width:1.0;"/><line style="stroke:#181818;stroke-width:1.0;" x1="273.5" x2="357.5" y1="349.5938" y2="349.5938"/><text fill="#000000" font-family="sans-serif" font-size="13" lengthAdjust="spacing" textLength="60" x="280.5" y="344.8516">getUUID()</text><polygon fill="#181818" points="284.5,374.9043,274.5,378.9043,284.5,382.9043,280.5,378.9043" style="stroke:#181818;stroke-width:1.0;"/><line style="stroke:#181818;stroke-width:1.0;stroke-dasharray:2.0,2.0;" x1="278.5" x2="367.5" y1="378.9043" y2="378.9043"/><text fill="#000000" font-family="sans-serif" font-size="13" lengthAdjust="spacing" textLength="59" x="290.5" y="374.1621">cardUUID</text><polygon fill="#181818" points="108.5,411.2148,98.5,415.2148,108.5,419.2148,104.5,415.2148" style="stroke:#181818;stroke-width:1.0;"/><line style="stroke:#181818;stroke-width:1.0;stroke-dasharray:2.0,2.0;" x1="102.5" x2="267.5" y1="415.2148" y2="415.2148"/><text fill="#000000" font-family="sans-serif" font-size="13" lengthAdjust="spacing" textLength="83" x="114.5" y="410.4727">cardToDelete</text><polygon fill="#181818" points="611.5,440.5254,621.5,444.5254,611.5,448.5254,615.5,444.5254" style="stroke:#181818;stroke-width:1.0;"/><line style="stroke:#181818;stroke-width:1.0;" x1="97.5" x2="617.5" y1="444.5254" y2="444.5254"/><text fill="#000000" font-family="sans-serif" font-size="13" lengthAdjust="spacing" textLength="90" x="104.5" y="439.7832">getTagsUUID()</text><polygon fill="#181818" points="108.5,469.8359,98.5,473.8359,108.5,477.8359,104.5,473.8359" style="stroke:#181818;stroke-width:1.0;"/><line style="stroke:#181818;stroke-width:1.0;stroke-dasharray:2.0,2.0;" x1="102.5" x2="627.5" y1="473.8359" y2="473.8359"/><text fill="#000000" font-family="sans-serif" font-size="13" lengthAdjust="spacing" textLength="59" x="114.5" y="469.0938">tagsUUID</text><polygon fill="#181818" points="611.5,499.1465,621.5,503.1465,611.5,507.1465,615.5,503.1465" style="stroke:#181818;stroke-width:1.0;"/><line style="stroke:#181818;stroke-width:1.0;" x1="97.5" x2="617.5" y1="503.1465" y2="503.1465"/><text fill="#000000" font-family="sans-serif" font-size="13" lengthAdjust="spacing" textLength="99" x="104.5" y="498.4043">getDecksUUID()</text><polygon fill="#181818" points="108.5,528.457,98.5,532.457,108.5,536.457,104.5,532.457" style="stroke:#181818;stroke-width:1.0;"/><line style="stroke:#181818;stroke-width:1.0;stroke-dasharray:2.0,2.0;" x1="102.5" x2="627.5" y1="532.457" y2="532.457"/><text fill="#000000" font-family="sans-serif" font-size="13" lengthAdjust="spacing" textLength="69" x="114.5" y="527.7148">decksUUID</text><line style="stroke:#181818;stroke-width:1.0;" x1="97.5" x2="144.5" y1="556.7676" y2="556.7676"/><line style="stroke:#181818;stroke-width:1.0;" x1="144.5" x2="144.5" y1="556.7676" y2="569.7676"/><line style="stroke:#181818;stroke-width:1.0;" x1="103.5" x2="144.5" y1="569.7676" y2="569.7676"/><polygon fill="#181818" points="113.5,565.7676,103.5,569.7676,113.5,573.7676,109.5,569.7676" style="stroke:#181818;stroke-width:1.0;"/><text fill="#000000" font-family="sans-serif" font-size="13" lengthAdjust="spacing" textLength="152" x="109.5" y="552.0254">cardRemovalFromDeck()</text><polygon fill="#181818" points="539,600.0781,549,604.0781,539,608.0781,543,604.0781" style="stroke:#181818;stroke-width:1.0;"/><line style="stroke:#181818;stroke-width:1.0;" x1="102.5" x2="545" y1="604.0781" y2="604.0781"/><text fill="#000000" font-family="sans-serif" font-size="13" lengthAdjust="spacing" textLength="369" x="109.5" y="599.3359">find deck from decksUUID and delete cardToDelete from it</text><polygon fill="#181818" points="113.5,614.0781,103.5,618.0781,113.5,622.0781,109.5,618.0781" style="stroke:#181818;stroke-width:1.0;"/><line style="stroke:#181818;stroke-width:1.0;stroke-dasharray:2.0,2.0;" x1="107.5" x2="555" y1="618.0781" y2="618.0781"/><line style="stroke:#181818;stroke-width:1.0;stroke-dasharray:2.0,2.0;" x1="102.5" x2="144.5" y1="637.0781" y2="637.0781"/><line style="stroke:#181818;stroke-width:1.0;stroke-dasharray:2.0,2.0;" x1="144.5" x2="144.5" y1="637.0781" y2="650.0781"/><line style="stroke:#181818;stroke-width:1.0;stroke-dasharray:2.0,2.0;" x1="97.5" x2="144.5" y1="650.0781" y2="650.0781"/><polygon fill="#181818" points="107.5,646.0781,97.5,650.0781,107.5,654.0781,103.5,650.0781" style="stroke:#181818;stroke-width:1.0;"/><line style="stroke:#181818;stroke-width:1.0;" x1="97.5" x2="144.5" y1="669.3887" y2="669.3887"/><line style="stroke:#181818;stroke-width:1.0;" x1="144.5" x2="144.5" y1="669.3887" y2="682.3887"/><line style="stroke:#181818;stroke-width:1.0;" x1="103.5" x2="144.5" y1="682.3887" y2="682.3887"/><polygon fill="#181818" points="113.5,678.3887,103.5,682.3887,113.5,686.3887,109.5,682.3887" style="stroke:#181818;stroke-width:1.0;"/><text fill="#000000" font-family="sans-serif" font-size="13" lengthAdjust="spacing" textLength="143" x="109.5" y="664.6465">cardRemovalFromTag()</text><polygon fill="#181818" points="458.5,712.6992,468.5,716.6992,458.5,720.6992,462.5,716.6992" style="stroke:#181818;stroke-width:1.0;"/><line style="stroke:#181818;stroke-width:1.0;" x1="102.5" x2="464.5" y1="716.6992" y2="716.6992"/><text fill="#000000" font-family="sans-serif" font-size="13" lengthAdjust="spacing" textLength="349" x="109.5" y="711.957">find tag from tagsUUID and delete cardToDelete from it</text><polygon fill="#181818" points="113.5,726.6992,103.5,730.6992,113.5,734.6992,109.5,730.6992" style="stroke:#181818;stroke-width:1.0;"/><line style="stroke:#181818;stroke-width:1.0;stroke-dasharray:2.0,2.0;" x1="107.5" x2="474.5" y1="730.6992" y2="730.6992"/><line style="stroke:#181818;stroke-width:1.0;stroke-dasharray:2.0,2.0;" x1="102.5" x2="144.5" y1="749.6992" y2="749.6992"/><line style="stroke:#181818;stroke-width:1.0;stroke-dasharray:2.0,2.0;" x1="144.5" x2="144.5" y1="749.6992" y2="762.6992"/><line style="stroke:#181818;stroke-width:1.0;stroke-dasharray:2.0,2.0;" x1="97.5" x2="144.5" y1="762.6992" y2="762.6992"/><polygon fill="#181818" points="107.5,758.6992,97.5,762.6992,107.5,766.6992,103.5,762.6992" style="stroke:#181818;stroke-width:1.0;"/><polygon fill="#181818" points="251.5,783.0098,261.5,787.0098,251.5,791.0098,255.5,787.0098" style="stroke:#181818;stroke-width:1.0;"/><line style="stroke:#181818;stroke-width:1.0;" x1="97.5" x2="257.5" y1="787.0098" y2="787.0098"/><text fill="#000000" font-family="sans-serif" font-size="13" lengthAdjust="spacing" textLength="125" x="104.5" y="782.2676">delete cardToDelete</text><polygon fill="#181818" points="108.5,797.0098,98.5,801.0098,108.5,805.0098,104.5,801.0098" style="stroke:#181818;stroke-width:1.0;"/><line style="stroke:#181818;stroke-width:1.0;stroke-dasharray:2.0,2.0;" x1="102.5" x2="267.5" y1="801.0098" y2="801.0098"/><polygon fill="#181818" points="701.5,826.3203,711.5,830.3203,701.5,834.3203,705.5,830.3203" style="stroke:#181818;stroke-width:1.0;"/><line style="stroke:#181818;stroke-width:1.0;" x1="97.5" x2="707.5" y1="830.3203" y2="830.3203"/><text fill="#000000" font-family="sans-serif" font-size="13" lengthAdjust="spacing" textLength="302" x="104.5" y="825.5781">print success message and number of cards left</text><polygon fill="#181818" points="108.5,840.3203,98.5,844.3203,108.5,848.3203,104.5,844.3203" style="stroke:#181818;stroke-width:1.0;"/><line style="stroke:#181818;stroke-width:1.0;stroke-dasharray:2.0,2.0;" x1="102.5" x2="717.5" y1="844.3203" y2="844.3203"/><line style="stroke:#181818;stroke-width:1.0;stroke-dasharray:2.0,2.0;" x1="97.5" x2="139.5" y1="863.3203" y2="863.3203"/><line style="stroke:#181818;stroke-width:1.0;stroke-dasharray:2.0,2.0;" x1="139.5" x2="139.5" y1="863.3203" y2="876.3203"/><line style="stroke:#181818;stroke-width:1.0;stroke-dasharray:2.0,2.0;" x1="92.5" x2="139.5" y1="876.3203" y2="876.3203"/><polygon fill="#181818" points="102.5,872.3203,92.5,876.3203,102.5,880.3203,98.5,876.3203" style="stroke:#181818;stroke-width:1.0;"/><polygon fill="#181818" points="847.5,881.3203,857.5,885.3203,847.5,889.3203,851.5,885.3203" style="stroke:#181818;stroke-width:1.0;"/><line style="stroke:#181818;stroke-width:1.0;stroke-dasharray:2.0,2.0;" x1="87.5" x2="853.5" y1="885.3203" y2="885.3203"/><!--SRC=[hLJBRiCW4Bpp5IYdvD0VwA6NH9MYzb2roGTGM4UeDbYmJfE_Bs13ZR5RzN4nPfYPNNO1rg5c7EMP8L2j26cPGSbbonJIrUqEQa3OCYEskccO4YlAB2tGYSglF4gBWHmdCvmNvyDHcyIBm8HxOATaD_mNUVAtH8cJcOWfqcJjQC7i5OAf68T0of0PfmUulciZdfXnn6IReOHi3VYwPbihQFJcBcFGMyfx7H-ZgAaKe51Mrx10361dL4PA4SiEpOOjQ2vsWQt74JQ4bA859xW0xn3Mctb9F1YEMKab_DHH2QkHkYbSgBJKji1b9K4uADzfKfVLEm7klO5p6zKeG0Hg2xJhfFYB-_6ut-Nc7Y6WigOSTBzjihpztiuTQPjRue1yf_GdVI8L4Vf1etospz3eCwllZMwywrBJujqQcXR2qSg9FWDJ5d0lpkhGqoGEcSRXrscwiYrbEJmICKbNpZvuhEk_f3WwlpDMNskpryKPj4QwbyLsd8Erj74VTeAGfUgQLtTPTHNSBQsXIkbDnWy0]--></g></svg>