<?xml version="1.0" encoding="us-ascii" standalone="no"?><svg xmlns="http://www.w3.org/2000/svg" xmlns:xlink="http://www.w3.org/1999/xlink" contentStyleType="text/css" height="336px" preserveAspectRatio="none" style="width:593px;height:336px;background:#FFFFFF;" version="1.1" viewBox="0 0 593 336" width="593px" zoomAndPan="magnify"><defs/><g><rect fill="#FFFFFF" height="16.1777" style="stroke:#181818;stroke-width:1.0;" width="10" x="129.5" y="107.1094"/><rect fill="#FFFFFF" height="100.6211" style="stroke:#181818;stroke-width:1.0;" width="10" x="129.5" y="181.9082"/><rect fill="#FFFFFF" height="14" style="stroke:#181818;stroke-width:1.0;" width="10" x="249" y="240.5293"/><rect fill="#FFFFFF" height="57.3105" style="stroke:#181818;stroke-width:1.0;" width="10" x="365" y="211.2188"/><rect fill="#FFFFFF" height="84.7988" style="stroke:#181818;stroke-width:1.0;" width="10" x="506" y="67.7988"/><line style="stroke:#181818;stroke-width:0.5;stroke-dasharray:5.0,5.0;" x1="28" x2="28" y1="36.4883" y2="300.5293"/><line style="stroke:#181818;stroke-width:0.5;stroke-dasharray:5.0,5.0;" x1="134" x2="134" y1="106.543" y2="300.5293"/><line style="stroke:#181818;stroke-width:0.5;stroke-dasharray:5.0,5.0;" x1="254" x2="254" y1="36.4883" y2="300.5293"/><line style="stroke:#181818;stroke-width:0.5;stroke-dasharray:5.0,5.0;" x1="369.5" x2="369.5" y1="36.4883" y2="300.5293"/><line style="stroke:#181818;stroke-width:0.5;stroke-dasharray:5.0,5.0;" x1="510.5" x2="510.5" y1="36.4883" y2="300.5293"/><rect fill="#E2E2F0" height="30.4883" rx="2.5" ry="2.5" style="stroke:#181818;stroke-width:0.5;" width="47" x="5" y="5"/><text fill="#000000" font-family="sans-serif" font-size="14" lengthAdjust="spacing" textLength="33" x="12" y="25.5352">:Inka</text><rect fill="#E2E2F0" height="30.4883" rx="2.5" ry="2.5" style="stroke:#181818;stroke-width:0.5;" width="47" x="5" y="299.5293"/><text fill="#000000" font-family="sans-serif" font-size="14" lengthAdjust="spacing" textLength="33" x="12" y="320.0645">:Inka</text><rect fill="#E2E2F0" height="30.4883" rx="2.5" ry="2.5" style="stroke:#181818;stroke-width:0.5;" width="145" x="62" y="299.5293"/><text fill="#000000" font-family="sans-serif" font-size="14" lengthAdjust="spacing" textLength="131" x="69" y="320.0645">:ListCardCommand</text><rect fill="#E2E2F0" height="30.4883" rx="2.5" ry="2.5" style="stroke:#181818;stroke-width:0.5;" width="74" x="217" y="5"/><text fill="#000000" font-family="sans-serif" font-size="14" lengthAdjust="spacing" textLength="60" x="224" y="25.5352">:CardList</text><rect fill="#E2E2F0" height="30.4883" rx="2.5" ry="2.5" style="stroke:#181818;stroke-width:0.5;" width="74" x="217" y="299.5293"/><text fill="#000000" font-family="sans-serif" font-size="14" lengthAdjust="spacing" textLength="60" x="224" y="320.0645">:CardList</text><rect fill="#E2E2F0" height="30.4883" rx="2.5" ry="2.5" style="stroke:#181818;stroke-width:0.5;" width="109" x="315.5" y="5"/><text fill="#000000" font-family="sans-serif" font-size="14" lengthAdjust="spacing" textLength="95" x="322.5" y="25.5352">:UserInterface</text><rect fill="#E2E2F0" height="30.4883" rx="2.5" ry="2.5" style="stroke:#181818;stroke-width:0.5;" width="109" x="315.5" y="299.5293"/><text fill="#000000" font-family="sans-serif" font-size="14" lengthAdjust="spacing" textLength="95" x="322.5" y="320.0645">:UserInterface</text><rect fill="#E2E2F0" height="30.4883" rx="2.5" ry="2.5" style="stroke:#181818;stroke-width:0.5;" width="153" x="434.5" y="5"/><text fill="#000000" font-family="sans-serif" font-size="14" lengthAdjust="spacing" textLength="139" x="441.5" y="25.5352">:CardKeywordParser</text><rect fill="#E2E2F0" height="30.4883" rx="2.5" ry="2.5" style="stroke:#181818;stroke-width:0.5;" width="153" x="434.5" y="299.5293"/><text fill="#000000" font-family="sans-serif" font-size="14" lengthAdjust="spacing" textLength="139" x="441.5" y="320.0645">:CardKeywordParser</text><rect fill="#FFFFFF" height="16.1777" style="stroke:#181818;stroke-width:1.0;" width="10" x="129.5" y="107.1094"/><rect fill="#FFFFFF" height="100.6211" style="stroke:#181818;stroke-width:1.0;" width="10" x="129.5" y="181.9082"/><rect fill="#FFFFFF" height="14" style="stroke:#181818;stroke-width:1.0;" width="10" x="249" y="240.5293"/><rect fill="#FFFFFF" height="57.3105" style="stroke:#181818;stroke-width:1.0;" width="10" x="365" y="211.2188"/><rect fill="#FFFFFF" height="84.7988" style="stroke:#181818;stroke-width:1.0;" width="10" x="506" y="67.7988"/><polygon fill="#181818" points="494,63.7988,504,67.7988,494,71.7988,498,67.7988" style="stroke:#181818;stroke-width:1.0;"/><line style="stroke:#181818;stroke-width:1.0;" x1="28.5" x2="500" y1="67.7988" y2="67.7988"/><text fill="#000000" font-family="sans-serif" font-size="13" lengthAdjust="spacing" textLength="106" x="35.5" y="63.0566">parseCommand()</text><polygon fill="#181818" points="218,93.1094,208,97.1094,218,101.1094,214,97.1094" style="stroke:#181818;stroke-width:1.0;"/><line style="stroke:#181818;stroke-width:1.0;" x1="212" x2="505" y1="97.1094" y2="97.1094"/><text fill="#000000" font-family="sans-serif" font-size="13" lengthAdjust="spacing" textLength="124" x="224" y="92.3672">ListCardCommand()</text><rect fill="#E2E2F0" height="30.4883" rx="2.5" ry="2.5" style="stroke:#181818;stroke-width:0.5;" width="145" x="62" y="75.7988"/><text fill="#000000" font-family="sans-serif" font-size="14" lengthAdjust="spacing" textLength="131" x="69" y="96.334">:ListCardCommand</text><polygon fill="#181818" points="494,119.2871,504,123.2871,494,127.2871,498,123.2871" style="stroke:#181818;stroke-width:1.0;"/><line style="stroke:#181818;stroke-width:1.0;stroke-dasharray:2.0,2.0;" x1="134.5" x2="500" y1="123.2871" y2="123.2871"/><polygon fill="#181818" points="39.5,148.5977,29.5,152.5977,39.5,156.5977,35.5,152.5977" style="stroke:#181818;stroke-width:1.0;"/><line style="stroke:#181818;stroke-width:1.0;stroke-dasharray:2.0,2.0;" x1="33.5" x2="510" y1="152.5977" y2="152.5977"/><text fill="#000000" font-family="sans-serif" font-size="13" lengthAdjust="spacing" textLength="116" x="45.5" y="147.8555">ListCardCommand</text><polygon fill="#181818" points="117.5,177.9082,127.5,181.9082,117.5,185.9082,121.5,181.9082" style="stroke:#181818;stroke-width:1.0;"/><line style="stroke:#181818;stroke-width:1.0;" x1="28.5" x2="123.5" y1="181.9082" y2="181.9082"/><text fill="#000000" font-family="sans-serif" font-size="13" lengthAdjust="spacing" textLength="57" x="35.5" y="177.166">execute()</text><polygon fill="#181818" points="353,207.2188,363,211.2188,353,215.2188,357,211.2188" style="stroke:#181818;stroke-width:1.0;"/><line style="stroke:#181818;stroke-width:1.0;" x1="139.5" x2="359" y1="211.2188" y2="211.2188"/><text fill="#000000" font-family="sans-serif" font-size="13" lengthAdjust="spacing" textLength="90" x="146.5" y="206.4766">printCardList()</text><polygon fill="#181818" points="270,236.5293,260,240.5293,270,244.5293,266,240.5293" style="stroke:#181818;stroke-width:1.0;"/><line style="stroke:#181818;stroke-width:1.0;" x1="264" x2="364" y1="240.5293" y2="240.5293"/><text fill="#000000" font-family="sans-serif" font-size="13" lengthAdjust="spacing" textLength="87" x="276" y="235.7871">print all cards</text><polygon fill="#181818" points="353,250.5293,363,254.5293,353,258.5293,357,254.5293" style="stroke:#181818;stroke-width:1.0;"/><line style="stroke:#181818;stroke-width:1.0;stroke-dasharray:2.0,2.0;" x1="254" x2="359" y1="254.5293" y2="254.5293"/><polygon fill="#181818" points="150.5,264.5293,140.5,268.5293,150.5,272.5293,146.5,268.5293" style="stroke:#181818;stroke-width:1.0;"/><line style="stroke:#181818;stroke-width:1.0;stroke-dasharray:2.0,2.0;" x1="144.5" x2="369" y1="268.5293" y2="268.5293"/><polygon fill="#181818" points="39.5,278.5293,29.5,282.5293,39.5,286.5293,35.5,282.5293" style="stroke:#181818;stroke-width:1.0;"/><line style="stroke:#181818;stroke-width:1.0;stroke-dasharray:2.0,2.0;" x1="33.5" x2="133.5" y1="282.5293" y2="282.5293"/><!--SRC=[RP0z3i8m38NtdCBg10CNO63fLC70mW6ir4WHRLgvBZ-t9wwQehfCSTxxyc8RH-dGItYY47JHkHvPWWyzHe7YMCK75e03Q66yInYaHAxBhcqnrXDcDFD27IKcD5yCSnk8goZ4T_GqWIlbJ-APFg-Ewojo0fVebUgSzW-7qzQ28_HQp1tlziwLJBeDEylsQSepK4epYWOooSWndvlWNtVRD7gJ7uLIYlKIljgC3i8XIjwhVhm6vl7Lp31Wqu1Fuc2QNCul]--></g></svg>