<?xml version="1.0" encoding="us-ascii" standalone="no"?><svg xmlns="http://www.w3.org/2000/svg" xmlns:xlink="http://www.w3.org/1999/xlink" contentStyleType="text/css" height="971px" preserveAspectRatio="none" style="width:994px;height:971px;background:#FFFFFF;" version="1.1" viewBox="0 0 994 971" width="994px" zoomAndPan="magnify"><defs/><g><rect fill="#FFFFFF" height="16.1777" style="stroke:#181818;stroke-width:1.0;" width="10" x="139.5" y="177.9082"/><rect fill="#FFFFFF" height="665.2344" style="stroke:#181818;stroke-width:1.0;" width="10" x="139.5" y="252.707"/><rect fill="#FFFFFF" height="68.3105" style="stroke:#181818;stroke-width:1.0;" width="10" x="144.5" y="629.3887"/><rect fill="#FFFFFF" height="68.3105" style="stroke:#181818;stroke-width:1.0;" width="10" x="144.5" y="742.0098"/><rect fill="#FFFFFF" height="192.8184" style="stroke:#181818;stroke-width:1.0;" width="10" x="315.5" y="282.0176"/><rect fill="#FFFFFF" height="14" style="stroke:#181818;stroke-width:1.0;" width="10" x="315.5" y="846.6309"/><rect fill="#FFFFFF" height="31.4883" style="stroke:#181818;stroke-width:1.0;" width="10" x="415.5" y="107.1094"/><rect fill="#FFFFFF" height="29.3105" style="stroke:#181818;stroke-width:1.0;" width="10" x="415.5" y="335.6387"/><rect fill="#FFFFFF" height="29.3105" style="stroke:#181818;stroke-width:1.0;" width="10" x="415.5" y="409.2148"/><rect fill="#FFFFFF" height="14" style="stroke:#181818;stroke-width:1.0;" width="10" x="522.5" y="776.3203"/><rect fill="#FFFFFF" height="14" style="stroke:#181818;stroke-width:1.0;" width="10" x="603" y="663.6992"/><rect fill="#FFFFFF" height="29.3105" style="stroke:#181818;stroke-width:1.0;" width="10" x="675.5" y="504.1465"/><rect fill="#FFFFFF" height="29.3105" style="stroke:#181818;stroke-width:1.0;" width="10" x="675.5" y="562.7676"/><rect fill="#FFFFFF" height="14" style="stroke:#181818;stroke-width:1.0;" width="10" x="765.5" y="889.9414"/><rect fill="#FFFFFF" height="155.5977" style="stroke:#181818;stroke-width:1.0;" width="10" x="906.5" y="67.7988"/><rect fill="none" height="149.5078" style="stroke:#000000;stroke-width:1.5;" width="276" x="273.5" y="297.0176"/><line style="stroke:#181818;stroke-width:0.5;stroke-dasharray:5.0,5.0;" x1="28" x2="28" y1="36.4883" y2="935.9414"/><line style="stroke:#181818;stroke-width:0.5;stroke-dasharray:5.0,5.0;" x1="144" x2="144" y1="177.3418" y2="935.9414"/><line style="stroke:#181818;stroke-width:0.5;stroke-dasharray:5.0,5.0;" x1="320.5" x2="320.5" y1="36.4883" y2="935.9414"/><line style="stroke:#181818;stroke-width:0.5;stroke-dasharray:5.0,5.0;" x1="420.5" x2="420.5" y1="106.543" y2="935.9414"/><line style="stroke:#181818;stroke-width:0.5;stroke-dasharray:5.0,5.0;" x1="527" x2="527" y1="36.4883" y2="935.9414"/><line style="stroke:#181818;stroke-width:0.5;stroke-dasharray:5.0,5.0;" x1="608" x2="608" y1="36.4883" y2="935.9414"/><line style="stroke:#181818;stroke-width:0.5;stroke-dasharray:5.0,5.0;" x1="680" x2="680" y1="36.4883" y2="935.9414"/><line style="stroke:#181818;stroke-width:0.5;stroke-dasharray:5.0,5.0;" x1="770" x2="770" y1="36.4883" y2="935.9414"/><line style="stroke:#181818;stroke-width:0.5;stroke-dasharray:5.0,5.0;" x1="911" x2="911" y1="36.4883" y2="935.9414"/><rect fill="#E2E2F0" height="30.4883" rx="2.5" ry="2.5" style="stroke:#181818;stroke-width:0.5;" width="47" x="5" y="5"/><text fill="#000000" font-family="sans-serif" font-size="14" lengthAdjust="spacing" textLength="33" x="12" y="25.5352">:Inka</text><rect fill="#E2E2F0" height="30.4883" rx="2.5" ry="2.5" style="stroke:#181818;stroke-width:0.5;" width="47" x="5" y="934.9414"/><text fill="#000000" font-family="sans-serif" font-size="14" lengthAdjust="spacing" textLength="33" x="12" y="955.4766">:Inka</text><rect fill="#E2E2F0" height="30.4883" rx="2.5" ry="2.5" style="stroke:#181818;stroke-width:0.5;" width="165" x="62" y="934.9414"/><text fill="#000000" font-family="sans-serif" font-size="14" lengthAdjust="spacing" textLength="151" x="69" y="955.4766">:DeleteCardCommand</text><rect fill="#E2E2F0" height="30.4883" rx="2.5" ry="2.5" style="stroke:#181818;stroke-width:0.5;" width="74" x="283.5" y="5"/><text fill="#000000" font-family="sans-serif" font-size="14" lengthAdjust="spacing" textLength="60" x="290.5" y="25.5352">:CardList</text><rect fill="#E2E2F0" height="30.4883" rx="2.5" ry="2.5" style="stroke:#181818;stroke-width:0.5;" width="74" x="283.5" y="934.9414"/><text fill="#000000" font-family="sans-serif" font-size="14" lengthAdjust="spacing" textLength="60" x="290.5" y="955.4766">:CardList</text><rect fill="#E2E2F0" height="30.4883" rx="2.5" ry="2.5" style="stroke:#181818;stroke-width:0.5;" width="106" x="367.5" y="934.9414"/><text fill="#000000" font-family="sans-serif" font-size="14" lengthAdjust="spacing" textLength="92" x="374.5" y="955.4766">:CardSelector</text><rect fill="#E2E2F0" height="30.4883" rx="2.5" ry="2.5" style="stroke:#181818;stroke-width:0.5;" width="67" x="494" y="5"/><text fill="#000000" font-family="sans-serif" font-size="14" lengthAdjust="spacing" textLength="53" x="501" y="25.5352">:TagList</text><rect fill="#E2E2F0" height="30.4883" rx="2.5" ry="2.5" style="stroke:#181818;stroke-width:0.5;" width="67" x="494" y="934.9414"/><text fill="#000000" font-family="sans-serif" font-size="14" lengthAdjust="spacing" textLength="53" x="501" y="955.4766">:TagList</text><rect fill="#E2E2F0" height="30.4883" rx="2.5" ry="2.5" style="stroke:#181818;stroke-width:0.5;" width="74" x="571" y="5"/><text fill="#000000" font-family="sans-serif" font-size="14" lengthAdjust="spacing" textLength="60" x="578" y="25.5352">:DeckList</text><rect fill="#E2E2F0" height="30.4883" rx="2.5" ry="2.5" style="stroke:#181818;stroke-width:0.5;" width="74" x="571" y="934.9414"/><text fill="#000000" font-family="sans-serif" font-size="14" lengthAdjust="spacing" textLength="60" x="578" y="955.4766">:DeckList</text><rect fill="#E2E2F0" height="30.4883" rx="2.5" ry="2.5" style="stroke:#181818;stroke-width:0.5;" width="51" x="655" y="5"/><text fill="#000000" font-family="sans-serif" font-size="14" lengthAdjust="spacing" textLength="37" x="662" y="25.5352">:Card</text><rect fill="#E2E2F0" height="30.4883" rx="2.5" ry="2.5" style="stroke:#181818;stroke-width:0.5;" width="51" x="655" y="934.9414"/><text fill="#000000" font-family="sans-serif" font-size="14" lengthAdjust="spacing" textLength="37" x="662" y="955.4766">:Card</text><rect fill="#E2E2F0" height="30.4883" rx="2.5" ry="2.5" style="stroke:#181818;stroke-width:0.5;" width="109" x="716" y="5"/><text fill="#000000" font-family="sans-serif" font-size="14" lengthAdjust="spacing" textLength="95" x="723" y="25.5352">:UserInterface</text><rect fill="#E2E2F0" height="30.4883" rx="2.5" ry="2.5" style="stroke:#181818;stroke-width:0.5;" width="109" x="716" y="934.9414"/><text fill="#000000" font-family="sans-serif" font-size="14" lengthAdjust="spacing" textLength="95" x="723" y="955.4766">:UserInterface</text><rect fill="#E2E2F0" height="30.4883" rx="2.5" ry="2.5" style="stroke:#181818;stroke-width:0.5;" width="153" x="835" y="5"/><text fill="#000000" font-family="sans-serif" font-size="14" lengthAdjust="spacing" textLength="139" x="842" y="25.5352">:CardKeywordParser</text><rect fill="#E2E2F0" height="30.4883" rx="2.5" ry="2.5" style="stroke:#181818;stroke-width:0.5;" width="153" x="835" y="934.9414"/><text fill="#000000" font-family="sans-serif" font-size="14" lengthAdjust="spacing" textLength="139" x="842" y="955.4766">:CardKeywordParser</text><rect fill="#FFFFFF" height="16.1777" style="stroke:#181818;stroke-width:1.0;" width="10" x="139.5" y="177.9082"/><rect fill="#FFFFFF" height="665.2344" style="stroke:#181818;stroke-width:1.0;" width="10" x="139.5" y="252.707"/><rect fill="#FFFFFF" height="68.3105" style="stroke:#181818;stroke-width:1.0;" width="10" x="144.5" y="629.3887"/><rect fill="#FFFFFF" height="68.3105" style="stroke:#181818;stroke-width:1.0;" width="10" x="144.5" y="742.0098"/><rect fill="#FFFFFF" height="192.8184" style="stroke:#181818;stroke-width:1.0;" width="10" x="315.5" y="282.0176"/><rect fill="#FFFFFF" height="14" style="stroke:#181818;stroke-width:1.0;" width="10" x="315.5" y="846.6309"/><rect fill="#FFFFFF" height="31.4883" style="stroke:#181818;stroke-width:1.0;" width="10" x="415.5" y="107.1094"/><rect fill="#FFFFFF" height="29.3105" style="stroke:#181818;stroke-width:1.0;" width="10" x="415.5" y="335.6387"/><rect fill="#FFFFFF" height="29.3105" style="stroke:#181818;stroke-width:1.0;" width="10" x="415.5" y="409.2148"/><rect fill="#FFFFFF" height="14" style="stroke:#181818;stroke-width:1.0;" width="10" x="522.5" y="776.3203"/><rect fill="#FFFFFF" height="14" style="stroke:#181818;stroke-width:1.0;" width="10" x="603" y="663.6992"/><rect fill="#FFFFFF" height="29.3105" style="stroke:#181818;stroke-width:1.0;" width="10" x="675.5" y="504.1465"/><rect fill="#FFFFFF" height="29.3105" style="stroke:#181818;stroke-width:1.0;" width="10" x="675.5" y="562.7676"/><rect fill="#FFFFFF" height="14" style="stroke:#181818;stroke-width:1.0;" width="10" x="765.5" y="889.9414"/><rect fill="#FFFFFF" height="155.5977" style="stroke:#181818;stroke-width:1.0;" width="10" x="906.5" y="67.7988"/><polygon fill="#181818" points="894.5,63.7988,904.5,67.7988,894.5,71.7988,898.5,67.7988" style="stroke:#181818;stroke-width:1.0;"/><line style="stroke:#181818;stroke-width:1.0;" x1="28.5" x2="900.5" y1="67.7988" y2="67.7988"/><text fill="#000000" font-family="sans-serif" font-size="13" lengthAdjust="spacing" textLength="106" x="35.5" y="63.0566">parseCommand()</text><polygon fill="#181818" points="484.5,93.1094,474.5,97.1094,484.5,101.1094,480.5,97.1094" style="stroke:#181818;stroke-width:1.0;"/><line style="stroke:#181818;stroke-width:1.0;" x1="478.5" x2="905.5" y1="97.1094" y2="97.1094"/><text fill="#000000" font-family="sans-serif" font-size="13" lengthAdjust="spacing" textLength="219" x="490.5" y="92.3672">create cardSelector to identify card</text><rect fill="#E2E2F0" height="30.4883" rx="2.5" ry="2.5" style="stroke:#181818;stroke-width:0.5;" width="106" x="367.5" y="75.7988"/><text fill="#000000" font-family="sans-serif" font-size="14" lengthAdjust="spacing" textLength="92" x="374.5" y="96.334">:CardSelector</text><polygon fill="#181818" points="894.5,134.5977,904.5,138.5977,894.5,142.5977,898.5,138.5977" style="stroke:#181818;stroke-width:1.0;"/><line style="stroke:#181818;stroke-width:1.0;stroke-dasharray:2.0,2.0;" x1="420.5" x2="900.5" y1="138.5977" y2="138.5977"/><text fill="#000000" font-family="sans-serif" font-size="13" lengthAdjust="spacing" textLength="77" x="427.5" y="133.8555">cardSelector</text><polygon fill="#181818" points="238,163.9082,228,167.9082,238,171.9082,234,167.9082" style="stroke:#181818;stroke-width:1.0;"/><line style="stroke:#181818;stroke-width:1.0;" x1="232" x2="905.5" y1="167.9082" y2="167.9082"/><text fill="#000000" font-family="sans-serif" font-size="13" lengthAdjust="spacing" textLength="218" x="244" y="163.166">DeleteCardCommand(cardSelector)</text><rect fill="#E2E2F0" height="30.4883" rx="2.5" ry="2.5" style="stroke:#181818;stroke-width:0.5;" width="165" x="62" y="146.5977"/><text fill="#000000" font-family="sans-serif" font-size="14" lengthAdjust="spacing" textLength="151" x="69" y="167.1328">:DeleteCardCommand</text><polygon fill="#181818" points="894.5,190.0859,904.5,194.0859,894.5,198.0859,898.5,194.0859" style="stroke:#181818;stroke-width:1.0;"/><line style="stroke:#181818;stroke-width:1.0;stroke-dasharray:2.0,2.0;" x1="144.5" x2="900.5" y1="194.0859" y2="194.0859"/><polygon fill="#181818" points="39.5,219.3965,29.5,223.3965,39.5,227.3965,35.5,223.3965" style="stroke:#181818;stroke-width:1.0;"/><line style="stroke:#181818;stroke-width:1.0;stroke-dasharray:2.0,2.0;" x1="33.5" x2="910.5" y1="223.3965" y2="223.3965"/><text fill="#000000" font-family="sans-serif" font-size="13" lengthAdjust="spacing" textLength="133" x="45.5" y="218.6543">DeleteCardCommand</text><polygon fill="#181818" points="127.5,248.707,137.5,252.707,127.5,256.707,131.5,252.707" style="stroke:#181818;stroke-width:1.0;"/><line style="stroke:#181818;stroke-width:1.0;" x1="28.5" x2="133.5" y1="252.707" y2="252.707"/><text fill="#000000" font-family="sans-serif" font-size="13" lengthAdjust="spacing" textLength="57" x="35.5" y="247.9648">execute()</text><polygon fill="#181818" points="303.5,278.0176,313.5,282.0176,303.5,286.0176,307.5,282.0176" style="stroke:#181818;stroke-width:1.0;"/><line style="stroke:#181818;stroke-width:1.0;" x1="149.5" x2="309.5" y1="282.0176" y2="282.0176"/><text fill="#000000" font-family="sans-serif" font-size="13" lengthAdjust="spacing" textLength="62" x="156.5" y="277.2754">findCard()</text><path d="M273.5,297.0176 L335.5,297.0176 L335.5,304.3281 L325.5,314.3281 L273.5,314.3281 L273.5,297.0176 " fill="#EEEEEE" style="stroke:#000000;stroke-width:1.5;"/><rect fill="none" height="149.5078" style="stroke:#000000;stroke-width:1.5;" width="276" x="273.5" y="297.0176"/><text fill="#000000" font-family="sans-serif" font-size="13" font-weight="bold" lengthAdjust="spacing" textLength="17" x="288.5" y="310.5859">alt</text><text fill="#000000" font-family="sans-serif" font-size="11" font-weight="bold" lengthAdjust="spacing" textLength="194" x="350.5" y="309.6523">[index is specified in cardSelector]</text><polygon fill="#181818" points="403.5,331.6387,413.5,335.6387,403.5,339.6387,407.5,335.6387" style="stroke:#181818;stroke-width:1.0;"/><line style="stroke:#181818;stroke-width:1.0;" x1="325.5" x2="409.5" y1="335.6387" y2="335.6387"/><text fill="#000000" font-family="sans-serif" font-size="13" lengthAdjust="spacing" textLength="63" x="332.5" y="330.8965">getIndex()</text><polygon fill="#181818" points="336.5,360.9492,326.5,364.9492,336.5,368.9492,332.5,364.9492" style="stroke:#181818;stroke-width:1.0;"/><line style="stroke:#181818;stroke-width:1.0;stroke-dasharray:2.0,2.0;" x1="330.5" x2="419.5" y1="364.9492" y2="364.9492"/><text fill="#000000" font-family="sans-serif" font-size="13" lengthAdjust="spacing" textLength="62" x="342.5" y="360.207">cardIndex</text><line style="stroke:#000000;stroke-width:1.0;stroke-dasharray:2.0,2.0;" x1="273.5" x2="549.5" y1="373.9492" y2="373.9492"/><text fill="#000000" font-family="sans-serif" font-size="11" font-weight="bold" lengthAdjust="spacing" textLength="189" x="278.5" y="384.584">[uuid is specified in cardSelector]</text><polygon fill="#181818" points="403.5,405.2148,413.5,409.2148,403.5,413.2148,407.5,409.2148" style="stroke:#181818;stroke-width:1.0;"/><line style="stroke:#181818;stroke-width:1.0;" x1="325.5" x2="409.5" y1="409.2148" y2="409.2148"/><text fill="#000000" font-family="sans-serif" font-size="13" lengthAdjust="spacing" textLength="60" x="332.5" y="404.4727">getUUID()</text><polygon fill="#181818" points="336.5,434.5254,326.5,438.5254,336.5,442.5254,332.5,438.5254" style="stroke:#181818;stroke-width:1.0;"/><line style="stroke:#181818;stroke-width:1.0;stroke-dasharray:2.0,2.0;" x1="330.5" x2="419.5" y1="438.5254" y2="438.5254"/><text fill="#000000" font-family="sans-serif" font-size="13" lengthAdjust="spacing" textLength="59" x="342.5" y="433.7832">cardUUID</text><polygon fill="#181818" points="160.5,470.8359,150.5,474.8359,160.5,478.8359,156.5,474.8359" style="stroke:#181818;stroke-width:1.0;"/><line style="stroke:#181818;stroke-width:1.0;stroke-dasharray:2.0,2.0;" x1="154.5" x2="319.5" y1="474.8359" y2="474.8359"/><text fill="#000000" font-family="sans-serif" font-size="13" lengthAdjust="spacing" textLength="83" x="166.5" y="470.0938">cardToDelete</text><polygon fill="#181818" points="663.5,500.1465,673.5,504.1465,663.5,508.1465,667.5,504.1465" style="stroke:#181818;stroke-width:1.0;"/><line style="stroke:#181818;stroke-width:1.0;" x1="149.5" x2="669.5" y1="504.1465" y2="504.1465"/><text fill="#000000" font-family="sans-serif" font-size="13" lengthAdjust="spacing" textLength="90" x="156.5" y="499.4043">getTagsUUID()</text><polygon fill="#181818" points="160.5,529.457,150.5,533.457,160.5,537.457,156.5,533.457" style="stroke:#181818;stroke-width:1.0;"/><line style="stroke:#181818;stroke-width:1.0;stroke-dasharray:2.0,2.0;" x1="154.5" x2="679.5" y1="533.457" y2="533.457"/><text fill="#000000" font-family="sans-serif" font-size="13" lengthAdjust="spacing" textLength="59" x="166.5" y="528.7148">tagsUUID</text><polygon fill="#181818" points="663.5,558.7676,673.5,562.7676,663.5,566.7676,667.5,562.7676" style="stroke:#181818;stroke-width:1.0;"/><line style="stroke:#181818;stroke-width:1.0;" x1="149.5" x2="669.5" y1="562.7676" y2="562.7676"/><text fill="#000000" font-family="sans-serif" font-size="13" lengthAdjust="spacing" textLength="99" x="156.5" y="558.0254">getDecksUUID()</text><polygon fill="#181818" points="160.5,588.0781,150.5,592.0781,160.5,596.0781,156.5,592.0781" style="stroke:#181818;stroke-width:1.0;"/><line style="stroke:#181818;stroke-width:1.0;stroke-dasharray:2.0,2.0;" x1="154.5" x2="679.5" y1="592.0781" y2="592.0781"/><text fill="#000000" font-family="sans-serif" font-size="13" lengthAdjust="spacing" textLength="69" x="166.5" y="587.3359">decksUUID</text><line style="stroke:#181818;stroke-width:1.0;" x1="149.5" x2="196.5" y1="616.3887" y2="616.3887"/><line style="stroke:#181818;stroke-width:1.0;" x1="196.5" x2="196.5" y1="616.3887" y2="629.3887"/><line style="stroke:#181818;stroke-width:1.0;" x1="155.5" x2="196.5" y1="629.3887" y2="629.3887"/><polygon fill="#181818" points="165.5,625.3887,155.5,629.3887,165.5,633.3887,161.5,629.3887" style="stroke:#181818;stroke-width:1.0;"/><text fill="#000000" font-family="sans-serif" font-size="13" lengthAdjust="spacing" textLength="152" x="161.5" y="611.6465">cardRemovalFromDeck()</text><polygon fill="#181818" points="591,659.6992,601,663.6992,591,667.6992,595,663.6992" style="stroke:#181818;stroke-width:1.0;"/><line style="stroke:#181818;stroke-width:1.0;" x1="154.5" x2="597" y1="663.6992" y2="663.6992"/><text fill="#000000" font-family="sans-serif" font-size="13" lengthAdjust="spacing" textLength="369" x="161.5" y="658.957">find deck from decksUUID and delete cardToDelete from it</text><polygon fill="#181818" points="165.5,673.6992,155.5,677.6992,165.5,681.6992,161.5,677.6992" style="stroke:#181818;stroke-width:1.0;"/><line style="stroke:#181818;stroke-width:1.0;stroke-dasharray:2.0,2.0;" x1="159.5" x2="607" y1="677.6992" y2="677.6992"/><line style="stroke:#181818;stroke-width:1.0;stroke-dasharray:2.0,2.0;" x1="154.5" x2="196.5" y1="696.6992" y2="696.6992"/><line style="stroke:#181818;stroke-width:1.0;stroke-dasharray:2.0,2.0;" x1="196.5" x2="196.5" y1="696.6992" y2="709.6992"/><line style="stroke:#181818;stroke-width:1.0;stroke-dasharray:2.0,2.0;" x1="149.5" x2="196.5" y1="709.6992" y2="709.6992"/><polygon fill="#181818" points="159.5,705.6992,149.5,709.6992,159.5,713.6992,155.5,709.6992" style="stroke:#181818;stroke-width:1.0;"/><line style="stroke:#181818;stroke-width:1.0;" x1="149.5" x2="196.5" y1="729.0098" y2="729.0098"/><line style="stroke:#181818;stroke-width:1.0;" x1="196.5" x2="196.5" y1="729.0098" y2="742.0098"/><line style="stroke:#181818;stroke-width:1.0;" x1="155.5" x2="196.5" y1="742.0098" y2="742.0098"/><polygon fill="#181818" points="165.5,738.0098,155.5,742.0098,165.5,746.0098,161.5,742.0098" style="stroke:#181818;stroke-width:1.0;"/><text fill="#000000" font-family="sans-serif" font-size="13" lengthAdjust="spacing" textLength="143" x="161.5" y="724.2676">cardRemovalFromTag()</text><polygon fill="#181818" points="510.5,772.3203,520.5,776.3203,510.5,780.3203,514.5,776.3203" style="stroke:#181818;stroke-width:1.0;"/><line style="stroke:#181818;stroke-width:1.0;" x1="154.5" x2="516.5" y1="776.3203" y2="776.3203"/><text fill="#000000" font-family="sans-serif" font-size="13" lengthAdjust="spacing" textLength="349" x="161.5" y="771.5781">find tag from tagsUUID and delete cardToDelete from it</text><polygon fill="#181818" points="165.5,786.3203,155.5,790.3203,165.5,794.3203,161.5,790.3203" style="stroke:#181818;stroke-width:1.0;"/><line style="stroke:#181818;stroke-width:1.0;stroke-dasharray:2.0,2.0;" x1="159.5" x2="526.5" y1="790.3203" y2="790.3203"/><line style="stroke:#181818;stroke-width:1.0;stroke-dasharray:2.0,2.0;" x1="154.5" x2="196.5" y1="809.3203" y2="809.3203"/><line style="stroke:#181818;stroke-width:1.0;stroke-dasharray:2.0,2.0;" x1="196.5" x2="196.5" y1="809.3203" y2="822.3203"/><line style="stroke:#181818;stroke-width:1.0;stroke-dasharray:2.0,2.0;" x1="149.5" x2="196.5" y1="822.3203" y2="822.3203"/><polygon fill="#181818" points="159.5,818.3203,149.5,822.3203,159.5,826.3203,155.5,822.3203" style="stroke:#181818;stroke-width:1.0;"/><polygon fill="#181818" points="303.5,842.6309,313.5,846.6309,303.5,850.6309,307.5,846.6309" style="stroke:#181818;stroke-width:1.0;"/><line style="stroke:#181818;stroke-width:1.0;" x1="149.5" x2="309.5" y1="846.6309" y2="846.6309"/><text fill="#000000" font-family="sans-serif" font-size="13" lengthAdjust="spacing" textLength="125" x="156.5" y="841.8887">delete cardToDelete</text><polygon fill="#181818" points="160.5,856.6309,150.5,860.6309,160.5,864.6309,156.5,860.6309" style="stroke:#181818;stroke-width:1.0;"/><line style="stroke:#181818;stroke-width:1.0;stroke-dasharray:2.0,2.0;" x1="154.5" x2="319.5" y1="860.6309" y2="860.6309"/><polygon fill="#181818" points="753.5,885.9414,763.5,889.9414,753.5,893.9414,757.5,889.9414" style="stroke:#181818;stroke-width:1.0;"/><line style="stroke:#181818;stroke-width:1.0;" x1="149.5" x2="759.5" y1="889.9414" y2="889.9414"/><text fill="#000000" font-family="sans-serif" font-size="13" lengthAdjust="spacing" textLength="302" x="156.5" y="885.1992">print success message and number of cards left</text><polygon fill="#181818" points="160.5,899.9414,150.5,903.9414,160.5,907.9414,156.5,903.9414" style="stroke:#181818;stroke-width:1.0;"/><line style="stroke:#181818;stroke-width:1.0;stroke-dasharray:2.0,2.0;" x1="154.5" x2="769.5" y1="903.9414" y2="903.9414"/><polygon fill="#181818" points="39.5,913.9414,29.5,917.9414,39.5,921.9414,35.5,917.9414" style="stroke:#181818;stroke-width:1.0;"/><line style="stroke:#181818;stroke-width:1.0;stroke-dasharray:2.0,2.0;" x1="33.5" x2="143.5" y1="917.9414" y2="917.9414"/><!--SRC=[hLH1RiCW4Bpp2jHJSkW7SkWbKQMeFLHjyW0AwmZ51WlMQVBx0WRN6BkLsbuis9sTMMODh4FDECeBGw1Q4T8oWvBBbYcaTvkzEhCxoYprYqbk1pKWR9aHMzqqJ8a0BAAJAfzvbXO3E6rcC6-EXwCs0ou59jW3EmrqSLtqoSy396rc50UbIUvemUmLWgaOXm3A8ZDCJt3xq4QyCEE00sqM9SGxIkyVoXJTqDOled-hDI5R0tu-cGrbNIHB2CV3-pe-ZgAcKe12MTr2WXZ0pgWCD2YMqvoLBM1EkuYjnWhhA4kIVAaqE3J73bVW7O8pfyn67_oO7RAIIlYjzv7LIDqMhbHQQblWif8WN2W__L1TEde2t7k2rNhiMmWHg2tGhfFYB-p7utwNa_i80PKDwg3xOvFbu_TqxahOd19ZvATAVrCcfIA55cJd1kMxVOL6NrZzQ7JZMPU6bkvc75gGevKh-XAcBCHzSUP33vEO_ghqS_ssJMVRKfVnaKbDEZjxyUJhlxGu-dzdgBwlpLud_vWOwLucst4ErjB6VTW9GfUgQzxT1TPLOBUqXWedz_8J]--></g></svg>