<?xml version="1.0" encoding="us-ascii" standalone="no"?><svg xmlns="http://www.w3.org/2000/svg" xmlns:xlink="http://www.w3.org/1999/xlink" contentStyleType="text/css" height="347px" preserveAspectRatio="none" style="width:588px;height:347px;background:#FFFFFF;" version="1.1" viewBox="0 0 588 347" width="588px" zoomAndPan="magnify"><defs/><g><rect fill="#FFFFFF" height="183.4199" style="stroke:#181818;stroke-width:1.0;" width="10" x="80" y="119.2871"/><rect fill="#FFFFFF" height="183.4199" style="stroke:#181818;stroke-width:1.0;" width="10" x="80" y="119.2871"/><rect fill="#FFFFFF" height="143.9316" style="stroke:#181818;stroke-width:1.0;" width="10" x="85" y="158.7754"/><rect fill="#FFFFFF" height="14" style="stroke:#181818;stroke-width:1.0;" width="10" x="201" y="193.0859"/><rect fill="#FFFFFF" height="240.2188" style="stroke:#181818;stroke-width:1.0;" width="10" x="278.5" y="62.4883"/><rect fill="#FFFFFF" height="240.2188" style="stroke:#181818;stroke-width:1.0;" width="10" x="278.5" y="62.4883"/><rect fill="#FFFFFF" height="14" style="stroke:#181818;stroke-width:1.0;" width="10" x="363.5" y="236.3965"/><rect fill="#FFFFFF" height="14" style="stroke:#181818;stroke-width:1.0;" width="10" x="363.5" y="279.707"/><line style="stroke:#181818;stroke-width:0.5;stroke-dasharray:5.0,5.0;" x1="80" x2="80" y1="118.7207" y2="311.707"/><line style="stroke:#181818;stroke-width:0.5;stroke-dasharray:5.0,5.0;" x1="206" x2="206" y1="36.4883" y2="311.707"/><line style="stroke:#181818;stroke-width:0.5;stroke-dasharray:5.0,5.0;" x1="278" x2="278" y1="77.2324" y2="311.707"/><line style="stroke:#181818;stroke-width:0.5;stroke-dasharray:5.0,5.0;" x1="368" x2="368" y1="36.4883" y2="311.707"/><line style="stroke:#181818;stroke-width:0.5;stroke-dasharray:5.0,5.0;" x1="507" x2="507" y1="36.4883" y2="311.707"/><rect fill="#E2E2F0" height="30.4883" rx="2.5" ry="2.5" style="stroke:#181818;stroke-width:0.5;" width="150" x="5" y="310.707"/><text fill="#000000" font-family="sans-serif" font-size="14" lengthAdjust="spacing" textLength="136" x="12" y="331.2422">:AddCardCommand</text><rect fill="#E2E2F0" height="30.4883" rx="2.5" ry="2.5" style="stroke:#181818;stroke-width:0.5;" width="74" x="169" y="5"/><text fill="#000000" font-family="sans-serif" font-size="14" lengthAdjust="spacing" textLength="60" x="176" y="25.5352">:CardList</text><rect fill="#E2E2F0" height="30.4883" rx="2.5" ry="2.5" style="stroke:#181818;stroke-width:0.5;" width="74" x="169" y="310.707"/><text fill="#000000" font-family="sans-serif" font-size="14" lengthAdjust="spacing" textLength="60" x="176" y="331.2422">:CardList</text><rect fill="#E2E2F0" height="30.4883" rx="2.5" ry="2.5" style="stroke:#181818;stroke-width:0.5;" width="51" x="253" y="310.707"/><text fill="#000000" font-family="sans-serif" font-size="14" lengthAdjust="spacing" textLength="37" x="260" y="331.2422">:Card</text><rect fill="#E2E2F0" height="30.4883" rx="2.5" ry="2.5" style="stroke:#181818;stroke-width:0.5;" width="109" x="314" y="5"/><text fill="#000000" font-family="sans-serif" font-size="14" lengthAdjust="spacing" textLength="95" x="321" y="25.5352">:UserInterface</text><rect fill="#E2E2F0" height="30.4883" rx="2.5" ry="2.5" style="stroke:#181818;stroke-width:0.5;" width="109" x="314" y="310.707"/><text fill="#000000" font-family="sans-serif" font-size="14" lengthAdjust="spacing" textLength="95" x="321" y="331.2422">:UserInterface</text><rect fill="#E2E2F0" height="30.4883" rx="2.5" ry="2.5" style="stroke:#181818;stroke-width:0.5;" width="149" x="433" y="5"/><text fill="#000000" font-family="sans-serif" font-size="14" lengthAdjust="spacing" textLength="135" x="440" y="25.5352">CardKeywordParser</text><rect fill="#E2E2F0" height="30.4883" rx="2.5" ry="2.5" style="stroke:#181818;stroke-width:0.5;" width="149" x="433" y="310.707"/><text fill="#000000" font-family="sans-serif" font-size="14" lengthAdjust="spacing" textLength="135" x="440" y="331.2422">CardKeywordParser</text><rect fill="#FFFFFF" height="183.4199" style="stroke:#181818;stroke-width:1.0;" width="10" x="80" y="119.2871"/><rect fill="#FFFFFF" height="183.4199" style="stroke:#181818;stroke-width:1.0;" width="10" x="80" y="119.2871"/><rect fill="#FFFFFF" height="143.9316" style="stroke:#181818;stroke-width:1.0;" width="10" x="85" y="158.7754"/><rect fill="#FFFFFF" height="14" style="stroke:#181818;stroke-width:1.0;" width="10" x="201" y="193.0859"/><rect fill="#FFFFFF" height="240.2188" style="stroke:#181818;stroke-width:1.0;" width="10" x="278.5" y="62.4883"/><rect fill="#FFFFFF" height="240.2188" style="stroke:#181818;stroke-width:1.0;" width="10" x="278.5" y="62.4883"/><rect fill="#FFFFFF" height="14" style="stroke:#181818;stroke-width:1.0;" width="10" x="363.5" y="236.3965"/><rect fill="#FFFFFF" height="14" style="stroke:#181818;stroke-width:1.0;" width="10" x="363.5" y="279.707"/><polygon fill="#181818" points="315,48.4883,305,52.4883,315,56.4883,311,52.4883" style="stroke:#181818;stroke-width:1.0;"/><line style="stroke:#181818;stroke-width:1.0;" x1="309" x2="506.5" y1="52.4883" y2="52.4883"/><rect fill="#E2E2F0" height="30.4883" rx="2.5" ry="2.5" style="stroke:#181818;stroke-width:0.5;" width="51" x="253" y="46.4883"/><text fill="#000000" font-family="sans-serif" font-size="14" lengthAdjust="spacing" textLength="37" x="260" y="67.0234">:Card</text><polygon fill="#181818" points="166,105.2871,156,109.2871,166,113.2871,162,109.2871" style="stroke:#181818;stroke-width:1.0;"/><line style="stroke:#181818;stroke-width:1.0;" x1="160" x2="506.5" y1="109.2871" y2="109.2871"/><text fill="#000000" font-family="sans-serif" font-size="13" lengthAdjust="spacing" textLength="153" x="172" y="104.5449">AddCardCommand(card)</text><rect fill="#E2E2F0" height="30.4883" rx="2.5" ry="2.5" style="stroke:#181818;stroke-width:0.5;" width="150" x="5" y="87.9766"/><text fill="#000000" font-family="sans-serif" font-size="14" lengthAdjust="spacing" textLength="136" x="12" y="108.5117">:AddCardCommand</text><line style="stroke:#181818;stroke-width:1.0;" x1="90" x2="137" y1="145.7754" y2="145.7754"/><line style="stroke:#181818;stroke-width:1.0;" x1="137" x2="137" y1="145.7754" y2="158.7754"/><line style="stroke:#181818;stroke-width:1.0;" x1="96" x2="137" y1="158.7754" y2="158.7754"/><polygon fill="#181818" points="106,154.7754,96,158.7754,106,162.7754,102,158.7754" style="stroke:#181818;stroke-width:1.0;"/><text fill="#000000" font-family="sans-serif" font-size="13" lengthAdjust="spacing" textLength="57" x="102" y="141.0332">execute()</text><polygon fill="#181818" points="189,189.0859,199,193.0859,189,197.0859,193,193.0859" style="stroke:#181818;stroke-width:1.0;"/><line style="stroke:#181818;stroke-width:1.0;" x1="95" x2="195" y1="193.0859" y2="193.0859"/><text fill="#000000" font-family="sans-serif" font-size="13" lengthAdjust="spacing" textLength="87" x="102" y="188.3438">addCard(card)</text><polygon fill="#181818" points="106,203.0859,96,207.0859,106,211.0859,102,207.0859" style="stroke:#181818;stroke-width:1.0;"/><line style="stroke:#181818;stroke-width:1.0;stroke-dasharray:2.0,2.0;" x1="100" x2="205" y1="207.0859" y2="207.0859"/><polygon fill="#181818" points="351.5,232.3965,361.5,236.3965,351.5,240.3965,355.5,236.3965" style="stroke:#181818;stroke-width:1.0;"/><line style="stroke:#181818;stroke-width:1.0;" x1="95" x2="357.5" y1="236.3965" y2="236.3965"/><text fill="#000000" font-family="sans-serif" font-size="13" lengthAdjust="spacing" textLength="170" x="102" y="231.6543">printAddQuestionSuccess()</text><polygon fill="#181818" points="106,246.3965,96,250.3965,106,254.3965,102,250.3965" style="stroke:#181818;stroke-width:1.0;"/><line style="stroke:#181818;stroke-width:1.0;stroke-dasharray:2.0,2.0;" x1="100" x2="367.5" y1="250.3965" y2="250.3965"/><polygon fill="#181818" points="351.5,275.707,361.5,279.707,351.5,283.707,355.5,279.707" style="stroke:#181818;stroke-width:1.0;"/><line style="stroke:#181818;stroke-width:1.0;" x1="95" x2="357.5" y1="279.707" y2="279.707"/><text fill="#000000" font-family="sans-serif" font-size="13" lengthAdjust="spacing" textLength="197" x="102" y="274.9648">printNumOfQuestions(cardList)</text><polygon fill="#181818" points="106,289.707,96,293.707,106,297.707,102,293.707" style="stroke:#181818;stroke-width:1.0;"/><line style="stroke:#181818;stroke-width:1.0;stroke-dasharray:2.0,2.0;" x1="100" x2="367.5" y1="293.707" y2="293.707"/><!--SRC=[bP0z3iCW38LtJe4w9KClqA5IbQbgrHzLFO05ZiGGY8pfp-rBI9CgYAKBmdxVUnX3O0UApGCOfRD2z41ibEd1ibnjTbetGBfnNGTMhoHukMnb_A0SZUT4JaM1cVLCktkalMMa5XGcQD4HeY4S9atMuJZW- -b8Nu0Y9zVRKPb_bAh9b4rUj2yPkSaQbOht-fUVHOhCNWh45wh0MDKbUbfPv60KloyISY1RiYmM57qz6SiHkmRqR9oz1QNG- -hlZ5FepksKujCSmsXppWS0]--></g></svg>