<?xml version="1.0" encoding="us-ascii" standalone="no"?><svg xmlns="http://www.w3.org/2000/svg" xmlns:xlink="http://www.w3.org/1999/xlink" contentStyleType="text/css" height="334px" preserveAspectRatio="none" style="width:522px;height:334px;background:#FFFFFF;" version="1.1" viewBox="0 0 522 334" width="522px" zoomAndPan="magnify"><defs/><g><rect fill="#FFFFFF" height="203.4199" style="stroke:#181818;stroke-width:1.0;" width="10" x="72.5" y="77.7988"/><rect fill="#FFFFFF" height="142.9316" style="stroke:#181818;stroke-width:1.0;" width="10" x="77.5" y="117.2871"/><rect fill="#FFFFFF" height="14" style="stroke:#181818;stroke-width:1.0;" width="10" x="192" y="205.2188"/><rect fill="#FFFFFF" height="88.6211" style="stroke:#181818;stroke-width:1.0;" width="10" x="293.5" y="151.5977"/><rect fill="none" height="60.6211" style="stroke:#000000;stroke-width:1.5;" width="245" x="150" y="166.5977"/><line style="stroke:#181818;stroke-width:0.5;stroke-dasharray:5.0,5.0;" x1="77" x2="77" y1="77.2324" y2="299.2188"/><line style="stroke:#181818;stroke-width:0.5;stroke-dasharray:5.0,5.0;" x1="197" x2="197" y1="36.4883" y2="299.2188"/><line style="stroke:#181818;stroke-width:0.5;stroke-dasharray:5.0,5.0;" x1="298" x2="298" y1="36.4883" y2="299.2188"/><line style="stroke:#181818;stroke-width:0.5;stroke-dasharray:5.0,5.0;" x1="439" x2="439" y1="36.4883" y2="299.2188"/><rect fill="#E2E2F0" height="30.4883" rx="2.5" ry="2.5" style="stroke:#181818;stroke-width:0.5;" width="145" x="5" y="298.2188"/><text fill="#000000" font-family="sans-serif" font-size="14" lengthAdjust="spacing" textLength="131" x="12" y="318.7539">:ListCardCommand</text><rect fill="#E2E2F0" height="30.4883" rx="2.5" ry="2.5" style="stroke:#181818;stroke-width:0.5;" width="74" x="160" y="5"/><text fill="#000000" font-family="sans-serif" font-size="14" lengthAdjust="spacing" textLength="60" x="167" y="25.5352">:CardList</text><rect fill="#E2E2F0" height="30.4883" rx="2.5" ry="2.5" style="stroke:#181818;stroke-width:0.5;" width="74" x="160" y="298.2188"/><text fill="#000000" font-family="sans-serif" font-size="14" lengthAdjust="spacing" textLength="60" x="167" y="318.7539">:CardList</text><rect fill="#E2E2F0" height="30.4883" rx="2.5" ry="2.5" style="stroke:#181818;stroke-width:0.5;" width="109" x="244" y="5"/><text fill="#000000" font-family="sans-serif" font-size="14" lengthAdjust="spacing" textLength="95" x="251" y="25.5352">:UserInterface</text><rect fill="#E2E2F0" height="30.4883" rx="2.5" ry="2.5" style="stroke:#181818;stroke-width:0.5;" width="109" x="244" y="298.2188"/><text fill="#000000" font-family="sans-serif" font-size="14" lengthAdjust="spacing" textLength="95" x="251" y="318.7539">:UserInterface</text><rect fill="#E2E2F0" height="30.4883" rx="2.5" ry="2.5" style="stroke:#181818;stroke-width:0.5;" width="153" x="363" y="5"/><text fill="#000000" font-family="sans-serif" font-size="14" lengthAdjust="spacing" textLength="139" x="370" y="25.5352">:CardKeywordParser</text><rect fill="#E2E2F0" height="30.4883" rx="2.5" ry="2.5" style="stroke:#181818;stroke-width:0.5;" width="153" x="363" y="298.2188"/><text fill="#000000" font-family="sans-serif" font-size="14" lengthAdjust="spacing" textLength="139" x="370" y="318.7539">:CardKeywordParser</text><rect fill="#FFFFFF" height="203.4199" style="stroke:#181818;stroke-width:1.0;" width="10" x="72.5" y="77.7988"/><rect fill="#FFFFFF" height="142.9316" style="stroke:#181818;stroke-width:1.0;" width="10" x="77.5" y="117.2871"/><rect fill="#FFFFFF" height="14" style="stroke:#181818;stroke-width:1.0;" width="10" x="192" y="205.2188"/><rect fill="#FFFFFF" height="88.6211" style="stroke:#181818;stroke-width:1.0;" width="10" x="293.5" y="151.5977"/><polygon fill="#181818" points="161,63.7988,151,67.7988,161,71.7988,157,67.7988" style="stroke:#181818;stroke-width:1.0;"/><line style="stroke:#181818;stroke-width:1.0;" x1="155" x2="438.5" y1="67.7988" y2="67.7988"/><text fill="#000000" font-family="sans-serif" font-size="13" lengthAdjust="spacing" textLength="124" x="167" y="63.0566">ListCardCommand()</text><rect fill="#E2E2F0" height="30.4883" rx="2.5" ry="2.5" style="stroke:#181818;stroke-width:0.5;" width="145" x="5" y="46.4883"/><text fill="#000000" font-family="sans-serif" font-size="14" lengthAdjust="spacing" textLength="131" x="12" y="67.0234">:ListCardCommand</text><line style="stroke:#181818;stroke-width:1.0;" x1="82.5" x2="129.5" y1="104.2871" y2="104.2871"/><line style="stroke:#181818;stroke-width:1.0;" x1="129.5" x2="129.5" y1="104.2871" y2="117.2871"/><line style="stroke:#181818;stroke-width:1.0;" x1="88.5" x2="129.5" y1="117.2871" y2="117.2871"/><polygon fill="#181818" points="98.5,113.2871,88.5,117.2871,98.5,121.2871,94.5,117.2871" style="stroke:#181818;stroke-width:1.0;"/><text fill="#000000" font-family="sans-serif" font-size="13" lengthAdjust="spacing" textLength="57" x="94.5" y="99.5449">execute()</text><polygon fill="#181818" points="281.5,147.5977,291.5,151.5977,281.5,155.5977,285.5,151.5977" style="stroke:#181818;stroke-width:1.0;"/><line style="stroke:#181818;stroke-width:1.0;" x1="87.5" x2="287.5" y1="151.5977" y2="151.5977"/><text fill="#000000" font-family="sans-serif" font-size="13" lengthAdjust="spacing" textLength="90" x="94.5" y="146.8555">printCardList()</text><path d="M150,166.5977 L224,166.5977 L224,173.9082 L214,183.9082 L150,183.9082 L150,166.5977 " fill="#EEEEEE" style="stroke:#000000;stroke-width:1.5;"/><rect fill="none" height="60.6211" style="stroke:#000000;stroke-width:1.5;" width="245" x="150" y="166.5977"/><text fill="#000000" font-family="sans-serif" font-size="13" font-weight="bold" lengthAdjust="spacing" textLength="29" x="165" y="180.166">loop</text><text fill="#000000" font-family="sans-serif" font-size="11" font-weight="bold" lengthAdjust="spacing" textLength="151" x="239" y="179.2324">[until all cards are printed]</text><polygon fill="#181818" points="213,201.2188,203,205.2188,213,209.2188,209,205.2188" style="stroke:#181818;stroke-width:1.0;"/><line style="stroke:#181818;stroke-width:1.0;" x1="207" x2="292.5" y1="205.2188" y2="205.2188"/><text fill="#000000" font-family="sans-serif" font-size="13" lengthAdjust="spacing" textLength="61" x="219" y="200.4766">print card</text><polygon fill="#181818" points="281.5,215.2188,291.5,219.2188,281.5,223.2188,285.5,219.2188" style="stroke:#181818;stroke-width:1.0;"/><line style="stroke:#181818;stroke-width:1.0;stroke-dasharray:2.0,2.0;" x1="197" x2="287.5" y1="219.2188" y2="219.2188"/><polygon fill="#181818" points="98.5,236.2188,88.5,240.2188,98.5,244.2188,94.5,240.2188" style="stroke:#181818;stroke-width:1.0;"/><line style="stroke:#181818;stroke-width:1.0;stroke-dasharray:2.0,2.0;" x1="92.5" x2="297.5" y1="240.2188" y2="240.2188"/><line style="stroke:#181818;stroke-width:1.0;stroke-dasharray:2.0,2.0;" x1="87.5" x2="129.5" y1="259.2188" y2="259.2188"/><line style="stroke:#181818;stroke-width:1.0;stroke-dasharray:2.0,2.0;" x1="129.5" x2="129.5" y1="259.2188" y2="272.2188"/><line style="stroke:#181818;stroke-width:1.0;stroke-dasharray:2.0,2.0;" x1="82.5" x2="129.5" y1="272.2188" y2="272.2188"/><polygon fill="#181818" points="92.5,268.2188,82.5,272.2188,92.5,276.2188,88.5,272.2188" style="stroke:#181818;stroke-width:1.0;"/><polygon fill="#181818" points="427.5,277.2188,437.5,281.2188,427.5,285.2188,431.5,281.2188" style="stroke:#181818;stroke-width:1.0;"/><line style="stroke:#181818;stroke-width:1.0;stroke-dasharray:2.0,2.0;" x1="77.5" x2="433.5" y1="281.2188" y2="281.2188"/><!--SRC=[RP0z3i8m38Ltdy9YWe4BT63fX61WuG1MQgH8RH8vBZ-t9oaKgQPJbEVlFV_Gg96S-ZifOmm0YKIzyuc2ugOv-wmjITV6OQ3GRP0o6iquQgKI4pf_37FDBCUWB3ToF84BPINnnAz7bEv2Ki1Vz485W5Quhc47_4DnVx0GDbRPxW0ijEhZ9xjHkV0h-6An0YVnGUUpr1PzZ0d7eBv7wdjqfPIHX3yaTu0ceuJE_ZblSXLGM4S9mALrZGNu2lPz0m00]--></g></svg>