<?xml version="1.0" encoding="UTF-8" standalone="no"?><svg xmlns="http://www.w3.org/2000/svg" xmlns:xlink="http://www.w3.org/1999/xlink" contentStyleType="text/css" height="582px" preserveAspectRatio="none" style="width:627px;height:582px;background:#FFFFFF;" version="1.1" viewBox="0 0 627 582" width="627px" zoomAndPan="magnify"><defs/><g><rect fill="#FFFFFF" height="410.3398" style="stroke:#181818;stroke-width:1.0;" width="10" x="284" y="81.1367"/><rect fill="#FFFFFF" height="339.8125" style="stroke:#181818;stroke-width:1.0;" width="10" x="289" y="130.6641"/><rect fill="#FFFFFF" height="269.4609" style="stroke:#181818;stroke-width:1.0;" width="10" x="294" y="174.0156"/><rect fill="#FFFFFF" height="154.7578" style="stroke:#181818;stroke-width:1.0;" width="10" x="299" y="261.7188"/><rect fill="#FFFFFF" height="14" style="stroke:#181818;stroke-width:1.0;" width="10" x="441" y="209.3672"/><rect fill="#FFFFFF" height="30.3516" style="stroke:#181818;stroke-width:1.0;" width="10" x="551.5" y="349.7734"/><line style="stroke:#181818;stroke-width:0.5;stroke-dasharray:5.0,5.0;" x1="180" x2="180" y1="37.6094" y2="545.8281"/><line style="stroke:#181818;stroke-width:0.5;stroke-dasharray:5.0,5.0;" x1="289" x2="289" y1="37.6094" y2="545.8281"/><line style="stroke:#181818;stroke-width:0.5;stroke-dasharray:5.0,5.0;" x1="446" x2="446" y1="37.6094" y2="545.8281"/><line style="stroke:#181818;stroke-width:0.5;stroke-dasharray:5.0,5.0;" x1="556" x2="556" y1="37.6094" y2="545.8281"/><rect fill="#E2E2F0" height="31.6094" rx="2.5" ry="2.5" style="stroke:#181818;stroke-width:0.5;" width="56" x="152" y="5"/><text fill="#000000" font-family="sans-serif" font-size="14" lengthAdjust="spacing" textLength="42" x="159" y="26.5332">Parser</text><rect fill="#E2E2F0" height="31.6094" rx="2.5" ry="2.5" style="stroke:#181818;stroke-width:0.5;" width="56" x="152" y="544.8281"/><text fill="#000000" font-family="sans-serif" font-size="14" lengthAdjust="spacing" textLength="42" x="159" y="566.3613">Parser</text><rect fill="#E2E2F0" height="31.6094" rx="2.5" ry="2.5" style="stroke:#181818;stroke-width:0.5;" width="142" x="218" y="5"/><text fill="#000000" font-family="sans-serif" font-size="14" lengthAdjust="spacing" textLength="128" x="225" y="26.5332">CardKeywordParser</text><rect fill="#E2E2F0" height="31.6094" rx="2.5" ry="2.5" style="stroke:#181818;stroke-width:0.5;" width="142" x="218" y="544.8281"/><text fill="#000000" font-family="sans-serif" font-size="14" lengthAdjust="spacing" textLength="128" x="225" y="566.3613">CardKeywordParser</text><rect fill="#E2E2F0" height="31.6094" rx="2.5" ry="2.5" style="stroke:#181818;stroke-width:0.5;" width="100" x="396" y="5"/><text fill="#000000" font-family="sans-serif" font-size="14" lengthAdjust="spacing" textLength="86" x="403" y="26.5332">OptionBuilder</text><rect fill="#E2E2F0" height="31.6094" rx="2.5" ry="2.5" style="stroke:#181818;stroke-width:0.5;" width="100" x="396" y="544.8281"/><text fill="#000000" font-family="sans-serif" font-size="14" lengthAdjust="spacing" textLength="86" x="403" y="566.3613">OptionBuilder</text><rect fill="#E2E2F0" height="31.6094" rx="2.5" ry="2.5" style="stroke:#181818;stroke-width:0.5;" width="101" x="506" y="5"/><text fill="#000000" font-family="sans-serif" font-size="14" lengthAdjust="spacing" textLength="87" x="513" y="26.5332">DefaultParser</text><rect fill="#E2E2F0" height="31.6094" rx="2.5" ry="2.5" style="stroke:#181818;stroke-width:0.5;" width="101" x="506" y="544.8281"/><text fill="#000000" font-family="sans-serif" font-size="14" lengthAdjust="spacing" textLength="87" x="513" y="566.3613">DefaultParser</text><rect fill="#FFFFFF" height="410.3398" style="stroke:#181818;stroke-width:1.0;" width="10" x="284" y="81.1367"/><rect fill="#FFFFFF" height="339.8125" style="stroke:#181818;stroke-width:1.0;" width="10" x="289" y="130.6641"/><rect fill="#FFFFFF" height="269.4609" style="stroke:#181818;stroke-width:1.0;" width="10" x="294" y="174.0156"/><rect fill="#FFFFFF" height="154.7578" style="stroke:#181818;stroke-width:1.0;" width="10" x="299" y="261.7188"/><rect fill="#FFFFFF" height="14" style="stroke:#181818;stroke-width:1.0;" width="10" x="441" y="209.3672"/><rect fill="#FFFFFF" height="30.3516" style="stroke:#181818;stroke-width:1.0;" width="10" x="551.5" y="349.7734"/><polygon fill="#181818" points="272,77.1367,282,81.1367,272,85.1367,276,81.1367" style="stroke:#181818;stroke-width:1.0;"/><line style="stroke:#181818;stroke-width:1.0;" x1="180" x2="278" y1="81.1367" y2="81.1367"/><text fill="#000000" font-family="sans-serif" font-size="13" lengthAdjust="spacing" textLength="83" x="187" y="76.2803">parseTokens()</text><path d="M5,52.6094 L5,94.6094 L175,94.6094 L175,62.6094 L165,52.6094 L5,52.6094 " fill="#FEFFDD" style="stroke:#181818;stroke-width:0.5;"/><path d="M165,52.6094 L165,62.6094 L175,62.6094 L165,52.6094 " fill="#FEFFDD" style="stroke:#181818;stroke-width:0.5;"/><text fill="#000000" font-family="sans-serif" font-size="13" lengthAdjust="spacing" textLength="122" x="11" y="71.1045">Keyword token is not</text><text fill="#000000" font-family="sans-serif" font-size="13" lengthAdjust="spacing" textLength="149" x="11" y="87.4561">passed to KeywordParser</text><line style="stroke:#181818;stroke-width:1.0;" x1="294" x2="341" y1="117.6641" y2="117.6641"/><line style="stroke:#181818;stroke-width:1.0;" x1="341" x2="341" y1="117.6641" y2="130.6641"/><line style="stroke:#181818;stroke-width:1.0;" x1="300" x2="341" y1="130.6641" y2="130.6641"/><polygon fill="#181818" points="310,126.6641,300,130.6641,310,134.6641,306,130.6641" style="stroke:#181818;stroke-width:1.0;"/><text fill="#000000" font-family="sans-serif" font-size="13" lengthAdjust="spacing" textLength="83" x="306" y="112.8076">handleAction()</text><line style="stroke:#181818;stroke-width:1.0;" x1="299" x2="346" y1="161.0156" y2="161.0156"/><line style="stroke:#181818;stroke-width:1.0;" x1="346" x2="346" y1="161.0156" y2="174.0156"/><line style="stroke:#181818;stroke-width:1.0;" x1="305" x2="346" y1="174.0156" y2="174.0156"/><polygon fill="#181818" points="315,170.0156,305,174.0156,315,178.0156,311,174.0156" style="stroke:#181818;stroke-width:1.0;"/><text fill="#000000" font-family="sans-serif" font-size="13" lengthAdjust="spacing" textLength="69" x="311" y="156.1592">handleAdd()</text><polygon fill="#181818" points="429,205.3672,439,209.3672,429,213.3672,433,209.3672" style="stroke:#181818;stroke-width:1.0;"/><line style="stroke:#181818;stroke-width:1.0;" x1="304" x2="435" y1="209.3672" y2="209.3672"/><text fill="#000000" font-family="sans-serif" font-size="13" lengthAdjust="spacing" textLength="118" x="311" y="204.5107">get Options for flags</text><polygon fill="#181818" points="315,219.3672,305,223.3672,315,227.3672,311,223.3672" style="stroke:#181818;stroke-width:1.0;"/><line style="stroke:#181818;stroke-width:1.0;stroke-dasharray:2.0,2.0;" x1="309" x2="445" y1="223.3672" y2="223.3672"/><line style="stroke:#181818;stroke-width:1.0;" x1="304" x2="351" y1="248.7188" y2="248.7188"/><line style="stroke:#181818;stroke-width:1.0;" x1="351" x2="351" y1="248.7188" y2="261.7188"/><line style="stroke:#181818;stroke-width:1.0;" x1="310" x2="351" y1="261.7188" y2="261.7188"/><polygon fill="#181818" points="320,257.7188,310,261.7188,320,265.7188,316,261.7188" style="stroke:#181818;stroke-width:1.0;"/><text fill="#000000" font-family="sans-serif" font-size="13" lengthAdjust="spacing" textLength="118" x="316" y="243.8623">parseUsingOptions()</text><path d="M492,279.7188 L492,321.7188 L620,321.7188 L620,289.7188 L610,279.7188 L492,279.7188 " fill="#FEFFDD" style="stroke:#181818;stroke-width:0.5;"/><path d="M610,279.7188 L610,289.7188 L620,289.7188 L610,279.7188 " fill="#FEFFDD" style="stroke:#181818;stroke-width:0.5;"/><text fill="#000000" font-family="sans-serif" font-size="13" lengthAdjust="spacing" textLength="107" x="498" y="298.2139">Apache Commons</text><text fill="#000000" font-family="sans-serif" font-size="13" lengthAdjust="spacing" textLength="60" x="498" y="314.5654">CLI parser</text><polygon fill="#181818" points="539.5,345.7734,549.5,349.7734,539.5,353.7734,543.5,349.7734" style="stroke:#181818;stroke-width:1.0;"/><line style="stroke:#181818;stroke-width:1.0;" x1="309" x2="545.5" y1="349.7734" y2="349.7734"/><text fill="#000000" font-family="sans-serif" font-size="13" lengthAdjust="spacing" textLength="40" x="316" y="344.917">parse()</text><polygon fill="#181818" points="320,376.125,310,380.125,320,384.125,316,380.125" style="stroke:#181818;stroke-width:1.0;"/><line style="stroke:#181818;stroke-width:1.0;stroke-dasharray:2.0,2.0;" x1="314" x2="555.5" y1="380.125" y2="380.125"/><text fill="#000000" font-family="sans-serif" font-size="13" lengthAdjust="spacing" textLength="67" x="326" y="375.2686">Flag values</text><line style="stroke:#181818;stroke-width:1.0;stroke-dasharray:2.0,2.0;" x1="309" x2="351" y1="415.4766" y2="415.4766"/><line style="stroke:#181818;stroke-width:1.0;stroke-dasharray:2.0,2.0;" x1="351" x2="351" y1="415.4766" y2="428.4766"/><line style="stroke:#181818;stroke-width:1.0;stroke-dasharray:2.0,2.0;" x1="304" x2="351" y1="428.4766" y2="428.4766"/><polygon fill="#181818" points="314,424.4766,304,428.4766,314,432.4766,310,428.4766" style="stroke:#181818;stroke-width:1.0;"/><text fill="#000000" font-family="sans-serif" font-size="13" lengthAdjust="spacing" textLength="104" x="316" y="410.6201">Parsed Command</text><line style="stroke:#181818;stroke-width:1.0;stroke-dasharray:2.0,2.0;" x1="304" x2="346" y1="442.4766" y2="442.4766"/><line style="stroke:#181818;stroke-width:1.0;stroke-dasharray:2.0,2.0;" x1="346" x2="346" y1="442.4766" y2="455.4766"/><line style="stroke:#181818;stroke-width:1.0;stroke-dasharray:2.0,2.0;" x1="299" x2="346" y1="455.4766" y2="455.4766"/><polygon fill="#181818" points="309,451.4766,299,455.4766,309,459.4766,305,455.4766" style="stroke:#181818;stroke-width:1.0;"/><line style="stroke:#181818;stroke-width:1.0;stroke-dasharray:2.0,2.0;" x1="299" x2="341" y1="469.4766" y2="469.4766"/><line style="stroke:#181818;stroke-width:1.0;stroke-dasharray:2.0,2.0;" x1="341" x2="341" y1="469.4766" y2="482.4766"/><line style="stroke:#181818;stroke-width:1.0;stroke-dasharray:2.0,2.0;" x1="294" x2="341" y1="482.4766" y2="482.4766"/><polygon fill="#181818" points="304,478.4766,294,482.4766,304,486.4766,300,482.4766" style="stroke:#181818;stroke-width:1.0;"/><polygon fill="#181818" points="191,487.4766,181,491.4766,191,495.4766,187,491.4766" style="stroke:#181818;stroke-width:1.0;"/><line style="stroke:#181818;stroke-width:1.0;stroke-dasharray:2.0,2.0;" x1="185" x2="288" y1="491.4766" y2="491.4766"/><polygon fill="#181818" points="11,512.6523,1,516.6523,11,520.6523,7,516.6523" style="stroke:#181818;stroke-width:1.0;"/><line style="stroke:#181818;stroke-width:1.0;stroke-dasharray:2.0,2.0;" x1="5" x2="179" y1="516.6523" y2="516.6523"/><path d="M185,504.4766 L185,530.4766 L410,530.4766 L410,514.4766 L400,504.4766 L185,504.4766 " fill="#FEFFDD" style="stroke:#181818;stroke-width:0.5;"/><path d="M400,504.4766 L400,514.4766 L410,514.4766 L400,504.4766 " fill="#FEFFDD" style="stroke:#181818;stroke-width:0.5;"/><text fill="#000000" font-family="sans-serif" font-size="13" lengthAdjust="spacing" textLength="204" x="191" y="522.9717">Parsed Command propagated back</text><!--MD5=[c48a37d84c2c857c53ec248f6bc9d831]
@startuml ParserSequence
autoactivate on

' alice -> bob : hello
' bob -> bob : self call
' bill -> bob #005500 : hello from thread 2
' bob -> george ** : create
' return done in thread 2
' return rc
' bob -> george !! : delete
' return success

Parser -> CardKeywordParser : parseTokens()
note left
    Keyword token is not
    passed to KeywordParser
end note

CardKeywordParser -> CardKeywordParser : handleAction()
CardKeywordParser -> CardKeywordParser : handleAdd()

CardKeywordParser -> OptionBuilder : get Options for flags
return 

CardKeywordParser -> CardKeywordParser : parseUsingOptions()

note over DefaultParser
    Apache Commons
    CLI parser
end note
CardKeywordParser -> DefaultParser : parse()
return Flag values

return Parsed Command 
return 
return 
return 

<- - Parser

note right : Parsed Command propagated back

@enduml

@startuml ParserSequence
autoactivate on


Parser -> CardKeywordParser : parseTokens()
note left
    Keyword token is not
    passed to KeywordParser
end note

CardKeywordParser -> CardKeywordParser : handleAction()
CardKeywordParser -> CardKeywordParser : handleAdd()

CardKeywordParser -> OptionBuilder : get Options for flags
return 

CardKeywordParser -> CardKeywordParser : parseUsingOptions()

note over DefaultParser
    Apache Commons
    CLI parser
end note
CardKeywordParser -> DefaultParser : parse()
return Flag values

return Parsed Command 
return 
return 
return 

<- - Parser

note right : Parsed Command propagated back

@enduml

PlantUML version 1.2022.7(Tue Aug 23 01:01:30 SGT 2022)
(GPL source distribution)
Java Runtime: OpenJDK Runtime Environment
JVM: OpenJDK 64-Bit Server VM
Default Encoding: Cp1252
Language: en
Country: SG
--></g></svg>