<?xml version="1.0" encoding="us-ascii" standalone="no"?><svg xmlns="http://www.w3.org/2000/svg" xmlns:xlink="http://www.w3.org/1999/xlink" contentStyleType="text/css" height="423px" preserveAspectRatio="none" style="width:1336px;height:423px;background:#FFFFFF;" version="1.1" viewBox="0 0 1336 423" width="1336px" zoomAndPan="magnify"><defs/><g><line style="stroke:#181818;stroke-width:0.5;stroke-dasharray:5.0,5.0;" x1="68" x2="68" y1="38.6211" y2="385.5313"/><line style="stroke:#181818;stroke-width:0.5;stroke-dasharray:5.0,5.0;" x1="278.5" x2="278.5" y1="38.6211" y2="385.5313"/><line style="stroke:#181818;stroke-width:0.5;stroke-dasharray:5.0,5.0;" x1="793.5" x2="793.5" y1="38.6211" y2="385.5313"/><line style="stroke:#181818;stroke-width:0.5;stroke-dasharray:5.0,5.0;" x1="983" x2="983" y1="38.6211" y2="385.5313"/><line style="stroke:#181818;stroke-width:0.5;stroke-dasharray:5.0,5.0;" x1="1124" x2="1124" y1="38.6211" y2="385.5313"/><line style="stroke:#181818;stroke-width:0.5;stroke-dasharray:5.0,5.0;" x1="1272" x2="1272" y1="38.6211" y2="385.5313"/><line style="stroke:#181818;stroke-width:0.5;stroke-dasharray:5.0,5.0;" x1="1317" x2="1317" y1="38.6211" y2="385.5313"/><rect fill="#E2E2F0" height="32.6211" rx="2.5" ry="2.5" style="stroke:#181818;stroke-width:0.5;" width="127" x="5" y="5"/><text fill="#000000" font-family="sans-serif" font-size="14" lengthAdjust="spacing" textLength="113" x="12" y="27.1074">ToDoListManager</text><rect fill="#E2E2F0" height="32.6211" rx="2.5" ry="2.5" style="stroke:#181818;stroke-width:0.5;" width="127" x="5" y="384.5313"/><text fill="#000000" font-family="sans-serif" font-size="14" lengthAdjust="spacing" textLength="113" x="12" y="406.6387">ToDoListManager</text><rect fill="#E2E2F0" height="32.6211" rx="2.5" ry="2.5" style="stroke:#181818;stroke-width:0.5;" width="56" x="250.5" y="5"/><text fill="#000000" font-family="sans-serif" font-size="14" lengthAdjust="spacing" textLength="42" x="257.5" y="27.1074">Parser</text><rect fill="#E2E2F0" height="32.6211" rx="2.5" ry="2.5" style="stroke:#181818;stroke-width:0.5;" width="56" x="250.5" y="384.5313"/><text fill="#000000" font-family="sans-serif" font-size="14" lengthAdjust="spacing" textLength="42" x="257.5" y="406.6387">Parser</text><rect fill="#E2E2F0" height="32.6211" rx="2.5" ry="2.5" style="stroke:#181818;stroke-width:0.5;" width="158" x="714.5" y="5"/><text fill="#000000" font-family="sans-serif" font-size="14" lengthAdjust="spacing" textLength="144" x="721.5" y="27.1074">EditDeadlineCommand</text><rect fill="#E2E2F0" height="32.6211" rx="2.5" ry="2.5" style="stroke:#181818;stroke-width:0.5;" width="158" x="714.5" y="384.5313"/><text fill="#000000" font-family="sans-serif" font-size="14" lengthAdjust="spacing" textLength="144" x="721.5" y="406.6387">EditDeadlineCommand</text><rect fill="#E2E2F0" height="32.6211" rx="2.5" ry="2.5" style="stroke:#181818;stroke-width:0.5;" width="67" x="950" y="5"/><text fill="#000000" font-family="sans-serif" font-size="14" lengthAdjust="spacing" textLength="53" x="957" y="27.1074">TaskList</text><rect fill="#E2E2F0" height="32.6211" rx="2.5" ry="2.5" style="stroke:#181818;stroke-width:0.5;" width="67" x="950" y="384.5313"/><text fill="#000000" font-family="sans-serif" font-size="14" lengthAdjust="spacing" textLength="53" x="957" y="406.6387">TaskList</text><rect fill="#E2E2F0" height="32.6211" rx="2.5" ry="2.5" style="stroke:#181818;stroke-width:0.5;" width="47" x="1101" y="5"/><text fill="#000000" font-family="sans-serif" font-size="14" lengthAdjust="spacing" textLength="33" x="1108" y="27.1074">tasks</text><rect fill="#E2E2F0" height="32.6211" rx="2.5" ry="2.5" style="stroke:#181818;stroke-width:0.5;" width="47" x="1101" y="384.5313"/><text fill="#000000" font-family="sans-serif" font-size="14" lengthAdjust="spacing" textLength="33" x="1108" y="406.6387">tasks</text><rect fill="#E2E2F0" height="32.6211" rx="2.5" ry="2.5" style="stroke:#181818;stroke-width:0.5;" width="45" x="1250" y="5"/><text fill="#000000" font-family="sans-serif" font-size="14" lengthAdjust="spacing" textLength="31" x="1257" y="27.1074">Task</text><rect fill="#E2E2F0" height="32.6211" rx="2.5" ry="2.5" style="stroke:#181818;stroke-width:0.5;" width="45" x="1250" y="384.5313"/><text fill="#000000" font-family="sans-serif" font-size="14" lengthAdjust="spacing" textLength="31" x="1257" y="406.6387">Task</text><rect fill="#E2E2F0" height="32.6211" rx="2.5" ry="2.5" style="stroke:#181818;stroke-width:0.5;" width="25" x="1305" y="5"/><text fill="#000000" font-family="sans-serif" font-size="14" lengthAdjust="spacing" textLength="11" x="1312" y="27.1074">ui</text><rect fill="#E2E2F0" height="32.6211" rx="2.5" ry="2.5" style="stroke:#181818;stroke-width:0.5;" width="25" x="1305" y="384.5313"/><text fill="#000000" font-family="sans-serif" font-size="14" lengthAdjust="spacing" textLength="11" x="1312" y="406.6387">ui</text><polygon fill="#181818" points="266.5,67.9121,276.5,71.9121,266.5,75.9121,270.5,71.9121" style="stroke:#181818;stroke-width:1.0;"/><line style="stroke:#181818;stroke-width:1.0;" x1="68.5" x2="272.5" y1="71.9121" y2="71.9121"/><text fill="#000000" font-family="sans-serif" font-size="13" lengthAdjust="spacing" textLength="186" x="75.5" y="66.6494">parseCommand(inputCommand)</text><polygon fill="#181818" points="781.5,99.2031,791.5,103.2031,781.5,107.2031,785.5,103.2031" style="stroke:#181818;stroke-width:1.0;"/><line style="stroke:#181818;stroke-width:1.0;" x1="278.5" x2="787.5" y1="103.2031" y2="103.2031"/><text fill="#000000" font-family="sans-serif" font-size="13" lengthAdjust="spacing" textLength="491" x="285.5" y="97.9404">new EditDeadlineCommand(getArguments(splitInput, EditDeadlineCommand.FLAGS)</text><polygon fill="#181818" points="289.5,130.4941,279.5,134.4941,289.5,138.4941,285.5,134.4941" style="stroke:#181818;stroke-width:1.0;"/><line style="stroke:#181818;stroke-width:1.0;" x1="283.5" x2="792.5" y1="134.4941" y2="134.4941"/><text fill="#000000" font-family="sans-serif" font-size="13" lengthAdjust="spacing" textLength="292" x="295.5" y="129.2314">formatDateTime(args.get(Flags.DEADLINE.FLAG))</text><polygon fill="#181818" points="781.5,161.7852,791.5,165.7852,781.5,169.7852,785.5,165.7852" style="stroke:#181818;stroke-width:1.0;"/><line style="stroke:#181818;stroke-width:1.0;stroke-dasharray:2.0,2.0;" x1="278.5" x2="787.5" y1="165.7852" y2="165.7852"/><text fill="#000000" font-family="sans-serif" font-size="13" lengthAdjust="spacing" textLength="247" x="285.5" y="160.5225">LocalDateTime.parse(date, inputFormatter)</text><polygon fill="#181818" points="781.5,193.0762,791.5,197.0762,781.5,201.0762,785.5,197.0762" style="stroke:#181818;stroke-width:1.0;"/><line style="stroke:#181818;stroke-width:1.0;" x1="68.5" x2="787.5" y1="197.0762" y2="197.0762"/><text fill="#000000" font-family="sans-serif" font-size="13" lengthAdjust="spacing" textLength="118" x="75.5" y="191.8135">execute(taskList, ui)</text><polygon fill="#181818" points="971.5,224.3672,981.5,228.3672,971.5,232.3672,975.5,228.3672" style="stroke:#181818;stroke-width:1.0;"/><line style="stroke:#181818;stroke-width:1.0;" x1="793.5" x2="977.5" y1="228.3672" y2="228.3672"/><text fill="#000000" font-family="sans-serif" font-size="13" lengthAdjust="spacing" textLength="166" x="800.5" y="223.1045">editDeadline(index, deadline)</text><polygon fill="#181818" points="1112.5,255.6582,1122.5,259.6582,1112.5,263.6582,1116.5,259.6582" style="stroke:#181818;stroke-width:1.0;"/><line style="stroke:#181818;stroke-width:1.0;" x1="983.5" x2="1118.5" y1="259.6582" y2="259.6582"/><text fill="#000000" font-family="sans-serif" font-size="13" lengthAdjust="spacing" textLength="117" x="990.5" y="254.3955">ArrayList: get(index)</text><polygon fill="#181818" points="1260.5,286.9492,1270.5,290.9492,1260.5,294.9492,1264.5,290.9492" style="stroke:#181818;stroke-width:1.0;"/><line style="stroke:#181818;stroke-width:1.0;" x1="1124.5" x2="1266.5" y1="290.9492" y2="290.9492"/><text fill="#000000" font-family="sans-serif" font-size="13" lengthAdjust="spacing" textLength="124" x="1131.5" y="285.6865">setDeadline(deadline)</text><polygon fill="#181818" points="1135.5,318.2402,1125.5,322.2402,1135.5,326.2402,1131.5,322.2402" style="stroke:#181818;stroke-width:1.0;"/><line style="stroke:#181818;stroke-width:1.0;stroke-dasharray:2.0,2.0;" x1="1129.5" x2="1271.5" y1="322.2402" y2="322.2402"/><text fill="#000000" font-family="sans-serif" font-size="13" lengthAdjust="spacing" textLength="53" x="1141.5" y="316.9775">toString()</text><polygon fill="#181818" points="994.5,332.2402,984.5,336.2402,994.5,340.2402,990.5,336.2402" style="stroke:#181818;stroke-width:1.0;"/><line style="stroke:#181818;stroke-width:1.0;stroke-dasharray:2.0,2.0;" x1="988.5" x2="1123.5" y1="336.2402" y2="336.2402"/><polygon fill="#181818" points="1305.5,363.5313,1315.5,367.5313,1305.5,371.5313,1309.5,367.5313" style="stroke:#181818;stroke-width:1.0;"/><line style="stroke:#181818;stroke-width:1.0;" x1="983.5" x2="1311.5" y1="367.5313" y2="367.5313"/><text fill="#000000" font-family="sans-serif" font-size="13" lengthAdjust="spacing" textLength="196" x="990.5" y="362.2686">printEditTaskMessage(taskString)</text><!--SRC=[TPB1QiCm38RlUGhVva2QtdCOXAKPXNGCsXSGiPQPnNPcownx-zbEkhQGdcAX__ya_UJfasXorNOxZQ39gx7iZTew_FQeUzm82OC5bMNPoJIcauuEe650opRFx1siGrknANvVZ5AW1PTwyhGKUJPBedWd93K8OfJwegsOnf-r1X-GQZjuXPeSTzCeQH-nnPguRBlwzPXdAwtR9J-CLK0D49waGWvsS6KOmziHmglPrKstVzibM7xT-z7YdUbXlC3A500NeInOkhzDmmXjlfRRAX7Fs7j2Jk2-ehvWNZuywhI8Wkr64B8NU2wOMEemVD55JmIxghOMVcThl3uvyYprBk2AERmoxs4faPd4o1p9IZtmV__DPdUZlGm_IP1IF2Ss3kXSI2CTEqFoFm00]--></g></svg>